DBRep_DrawableShape

CASCADE Topology V1, (c) Matra-Datavision
Locations 31
1
              1               0               0               0 
              0               1               0               0 
              0               0               1               0 
1
              1               0               0               0 
              0               1               0               0 
              0               0               1               0 
2  2 -1 0
1
              1               0               0              26 
              0               1               0            19.5 
              0               0               1               0 
1
              1               0               0               0 
              0               1               0               0 
              0               0               1               0 
2  4 1 5 1 0
2  2 1 5 -1 4 -1 0
2  5 -1 4 -1 0
1
              1               0               0              26 
              0               1               0           23.75 
              0               0               1               0 
2  9 1 5 1 0
2  2 1 5 -1 9 -1 0
2  5 -1 9 -1 0
1
              1               0               0            20.5 
              0               1               0           23.75 
              0               0               1               0 
2  13 1 5 1 0
2  2 1 5 -1 13 -1 0
2  5 -1 13 -1 0
1
              1               0               0            20.5 
              0               1               0            19.5 
              0               0               1               0 
2  17 1 5 1 0
1
              1               0               0               0 
              0               1               0               0 
              0               0               1               0 
2  2 1 19 -1 17 -1 0
2  19 -1 17 -1 0
2  2 1 5 -1 17 -1 0
2  5 -1 17 -1 0
1
              1               0               0              26 
              0               1               0              28 
              0               0               1               0 
2  24 1 5 1 0
2  2 1 5 -1 24 -1 0
2  5 -1 24 -1 0
1
              1               0               0            20.5 
              0               1               0              28 
              0               0               1               0 
2  28 1 5 1 0
2  2 1 5 -1 28 -1 0
2  5 -1 28 -1 0
Curve2ds 196
1 0 0 1 0 
1 0 0 1 0 
1 50 0 0 -1 
1 0 0 0 1 
1 0 -50 1 0 
1 0 0 1 0 
1 0 0 0 -1 
1 0 0 0 1 
1 0 0 0 1 
1 0 0 1 0 
1 0 0 1 0 
1 0 50 1 0 
1 50 0 0 1 
1 0 0 1 0 
1 50 0 0 1 
1 0 50 1 0 
1 50 0 0 -1 
1 50 0 0 1 
1 0 0 0 1 
1 0 50 1 0 
1 0 -50 1 0 
1 0 50 1 0 
1 0 0 0 -1 
1 50 0 0 1 
1 0 0 0 -1 
1 0 0 0 1 
1 26 19.5 0 1 
1 0 0 0 1 
1 0 0 1 0 
1 26 19.5 1 0 
1 0 0 0 -1 
1 3 0 0 1 
1 29 19.5 0 1 
1 0 0 0 1 
1 0 3 1 0 
1 26 22.5 1 0 
1 0 0 0 -1 
1 0 0 0 1 
1 26 23.75 0 1 
1 0 0 0 1 
1 0 0 1 0 
1 26 23.75 1 0 
1 0 0 0 -1 
1 3 0 0 1 
1 29 23.75 0 1 
1 0 0 0 1 
1 0 3 1 0 
1 26 26.75 1 0 
1 0 0 0 -1 
1 0 0 0 1 
1 20.5 23.75 0 1 
1 0 0 0 1 
1 0 0 1 0 
1 20.5 23.75 1 0 
1 0 0 0 -1 
1 3 0 0 1 
1 23.5 23.75 0 1 
1 0 0 0 1 
1 0 3 1 0 
1 20.5 26.75 1 0 
1 0 0 0 -1 
1 0 0 0 1 
1 20.5 19.5 0 1 
1 20.5 19.5 0 1 
1 0 0 0 1 
1 0 0 1 0 
1 20.5 19.5 1 0 
1 20.5 19.5 1 0 
1 0 0 0 -1 
1 3 0 0 1 
1 23.5 19.5 0 1 
1 23.5 19.5 0 1 
1 0 0 0 1 
1 0 3 1 0 
1 20.5 22.5 1 0 
1 20.5 22.5 1 0 
1 0 0 0 -1 
1 0 0 0 1 
1 26 28 0 1 
1 0 0 0 1 
1 0 0 1 0 
1 26 28 1 0 
1 0 0 0 -1 
1 3 0 0 1 
1 29 28 0 1 
1 0 0 0 1 
1 0 3 1 0 
1 26 31 1 0 
1 0 0 0 -1 
1 0 0 0 1 
1 20.5 28 0 1 
1 0 0 0 1 
1 0 0 1 0 
1 20.5 28 1 0 
1 0 0 0 -1 
1 3 0 0 1 
1 23.5 28 0 1 
1 0 0 0 1 
1 0 3 1 0 
1 20.5 31 1 0 
1 0 0 1 0 
1 0 0 1 0 
1 0.10000000000000001 0 0 -1 
1 0 0 0 1 
1 0 -3 1 0 
1 0 0 1 0 
1 0 0 1 0 
1 0 3 1 0 
1 0.10000000000000001 0 0 1 
1 0 0 1 0 
1 0.10000000000000001 0 0 -1 
1 3 0 0 1 
1 0 -3 1 0 
1 0 3 1 0 
1 0.10000000000000001 0 0 1 
1 0 3 1 0 
1 0 0 1 0 
1 0 0 1 0 
1 0.10000000000000001 0 0 -1 
1 0 0 0 1 
1 0 -3 1 0 
1 0 0 1 0 
1 0 0 1 0 
1 0 3 1 0 
1 0.10000000000000001 0 0 1 
1 0 0 1 0 
1 0.10000000000000001 0 0 -1 
1 3 0 0 1 
1 0 -3 1 0 
1 0 3 1 0 
1 0.10000000000000001 0 0 1 
1 0 3 1 0 
1 0 0 1 0 
1 0 0 1 0 
1 0.10000000000000001 0 0 -1 
1 0 0 0 1 
1 0 -3 1 0 
1 0 0 1 0 
1 0 0 1 0 
1 0 3 1 0 
1 0.10000000000000001 0 0 1 
1 0 0 1 0 
1 0.10000000000000001 0 0 -1 
1 3 0 0 1 
1 0 -3 1 0 
1 0 3 1 0 
1 0.10000000000000001 0 0 1 
1 0 3 1 0 
1 0 0 1 0 
1 0 0 1 0 
1 0.10000000000000001 0 0 -1 
1 0 0 0 1 
1 0 -3 1 0 
1 0 0 1 0 
1 0 0 1 0 
1 0 3 1 0 
1 0.10000000000000001 0 0 1 
1 0 0 1 0 
1 0.10000000000000001 0 0 -1 
1 3 0 0 1 
1 0 -3 1 0 
1 0 3 1 0 
1 0.10000000000000001 0 0 1 
1 0 3 1 0 
1 0 0 1 0 
1 0 0 1 0 
1 0.10000000000000001 0 0 -1 
1 0 0 0 1 
1 0 -3 1 0 
1 0 0 1 0 
1 0 0 1 0 
1 0 3 1 0 
1 0.10000000000000001 0 0 1 
1 0 0 1 0 
1 0.10000000000000001 0 0 -1 
1 3 0 0 1 
1 0 -3 1 0 
1 0 3 1 0 
1 0.10000000000000001 0 0 1 
1 0 3 1 0 
1 0 0 1 0 
1 0 0 1 0 
1 0.10000000000000001 0 0 -1 
1 0 0 0 1 
1 0 -3 1 0 
1 0 0 1 0 
1 0 0 1 0 
1 0 3 1 0 
1 0.10000000000000001 0 0 1 
1 0 0 1 0 
1 0.10000000000000001 0 0 -1 
1 3 0 0 1 
1 0 -3 1 0 
1 0 3 1 0 
1 0.10000000000000001 0 0 1 
1 0 3 1 0 
Curves 84
1 0 0 0 0 0 1 
1 0 0 50 -0 1 0 
1 0 50 0 0 0 1 
1 0 0 0 -0 1 0 
1 0 0 0 1 0 -0 
1 50 0 0 0 0 1 
1 0 0 50 1 0 -0 
1 0 50 50 1 0 -0 
1 50 0 50 -0 1 0 
1 0 50 0 1 0 -0 
1 50 50 0 0 0 1 
1 50 0 0 -0 1 0 
1 0 0 0 -0 1 0 
1 0 0 0 1 0 -0 
1 3 0 0 -0 1 0 
1 0 3 0 1 0 -0 
1 0 0 0 -0 1 0 
1 0 0 0 1 0 -0 
1 3 0 0 -0 1 0 
1 0 3 0 1 0 -0 
1 0 0 0 -0 1 0 
1 0 0 0 1 0 -0 
1 3 0 0 -0 1 0 
1 0 3 0 1 0 -0 
1 0 0 0 -0 1 0 
1 0 0 0 1 0 -0 
1 3 0 0 -0 1 0 
1 0 3 0 1 0 -0 
1 0 0 0 -0 1 0 
1 0 0 0 1 0 -0 
1 3 0 0 -0 1 0 
1 0 3 0 1 0 -0 
1 0 0 0 -0 1 0 
1 0 0 0 1 0 -0 
1 3 0 0 -0 1 0 
1 0 3 0 1 0 -0 
1 0 0 0 0 0 1 
1 0 0 0.10000000000000001 -0 1 0 
1 0 3 0 0 0 1 
1 3 0 0 0 0 1 
1 0 0 0.10000000000000001 1 0 -0 
1 3 0 0.10000000000000001 -0 1 0 
1 3 3 0 0 0 1 
1 0 3 0.10000000000000001 1 0 -0 
1 0 0 0 0 0 1 
1 0 0 0.10000000000000001 -0 1 0 
1 0 3 0 0 0 1 
1 3 0 0 0 0 1 
1 0 0 0.10000000000000001 1 0 -0 
1 3 0 0.10000000000000001 -0 1 0 
1 3 3 0 0 0 1 
1 0 3 0.10000000000000001 1 0 -0 
1 0 0 0 0 0 1 
1 0 0 0.10000000000000001 -0 1 0 
1 0 3 0 0 0 1 
1 3 0 0 0 0 1 
1 0 0 0.10000000000000001 1 0 -0 
1 3 0 0.10000000000000001 -0 1 0 
1 3 3 0 0 0 1 
1 0 3 0.10000000000000001 1 0 -0 
1 0 0 0 0 0 1 
1 0 0 0.10000000000000001 -0 1 0 
1 0 3 0 0 0 1 
1 3 0 0 0 0 1 
1 0 0 0.10000000000000001 1 0 -0 
1 3 0 0.10000000000000001 -0 1 0 
1 3 3 0 0 0 1 
1 0 3 0.10000000000000001 1 0 -0 
1 0 0 0 0 0 1 
1 0 0 0.10000000000000001 -0 1 0 
1 0 3 0 0 0 1 
1 3 0 0 0 0 1 
1 0 0 0.10000000000000001 1 0 -0 
1 3 0 0.10000000000000001 -0 1 0 
1 3 3 0 0 0 1 
1 0 3 0.10000000000000001 1 0 -0 
1 0 0 0 0 0 1 
1 0 0 0.10000000000000001 -0 1 0 
1 0 3 0 0 0 1 
1 3 0 0 0 0 1 
1 0 0 0.10000000000000001 1 0 -0 
1 3 0 0.10000000000000001 -0 1 0 
1 3 3 0 0 0 1 
1 0 3 0.10000000000000001 1 0 -0 
Polygon3D 0
PolygonOnTriangulations 316
2 1 2 
p 0.100000001490116 1 0 50 
2 1 4 
p 0.100000001490116 1 0 50 
2 2 3 
p 0.100000001490116 1 0 50 
2 1 2 
p 0.100000001490116 1 0 50 
2 4 3 
p 0.100000001490116 1 0 50 
2 1 4 
p 0.100000001490116 1 0 50 
2 1 4 
p 0.100000001490116 1 0 50 
2 1 2 
p 0.100000001490116 1 0 50 
2 1 2 
p 0.100000001490116 1 0 50 
2 1 2 
p 0.100000001490116 1 0 50 
2 1 2 
p 0.100000001490116 1 0 50 
2 1 4 
p 0.100000001490116 1 0 50 
2 1 4 
p 0.100000001490116 1 0 50 
2 1 4 
p 0.100000001490116 1 0 50 
2 1 2 
p 0.100000001490116 1 0 50 
2 2 3 
p 0.100000001490116 1 0 50 
2 4 3 
p 0.100000001490116 1 0 50 
2 1 4 
p 0.100000001490116 1 0 50 
2 4 3 
p 0.100000001490116 1 0 50 
2 2 3 
p 0.100000001490116 1 0 50 
2 2 3 
p 0.100000001490116 1 0 50 
2 4 3 
p 0.100000001490116 1 0 50 
2 1 2 
p 0.100000001490116 1 0 50 
2 2 3 
p 0.100000001490116 1 0 50 
2 2 3 
p 0.100000001490116 1 0 50 
2 2 3 
p 0.100000001490116 1 0 50 
2 4 3 
p 0.100000001490116 1 0 50 
2 2 3 
p 0.100000001490116 1 0 50 
2 1 4 
p 0.100000001490116 1 0 50 
2 4 3 
p 0.100000001490116 1 0 50 
2 4 3 
p 0.100000001490116 1 0 50 
2 4 3 
p 0.100000001490116 1 0 50 
2 1 4 
p 0.00406666672726 1 0 3 
2 1 2 
p 0.00406666672726 1 0 3 
2 5 6 
p 0.100000001490116 1 0 3 
2 1 4 
p 0.100000001490116 1 0 3 
2 1 2 
p 0.00406666672726 1 0 3 
2 1 4 
p 0.00406666672726 1 0 3 
2 5 7 
p 0.100000001490116 1 0 3 
2 1 2 
p 0.100000001490116 1 0 3 
2 1 4 
p 0.00406666672726 1 0 3 
2 4 3 
p 0.00406666672726 1 0 3 
2 7 8 
p 0.100000001490116 1 0 3 
2 1 4 
p 0.100000001490116 1 0 3 
2 1 2 
p 0.00406666672726 1 0 3 
2 2 3 
p 0.00406666672726 1 0 3 
2 6 8 
p 0.100000001490116 1 0 3 
2 1 2 
p 0.100000001490116 1 0 3 
2 1 4 
p 0.00406666672726 1 0 3 
2 1 2 
p 0.00406666672726 1 0 3 
2 9 10 
p 0.100000001490116 1 0 3 
2 1 4 
p 0.100000001490116 1 0 3 
2 1 2 
p 0.00406666672726 1 0 3 
2 1 4 
p 0.00406666672726 1 0 3 
2 9 11 
p 0.100000001490116 1 0 3 
2 1 2 
p 0.100000001490116 1 0 3 
2 1 4 
p 0.00406666672726 1 0 3 
2 4 3 
p 0.00406666672726 1 0 3 
2 11 12 
p 0.100000001490116 1 0 3 
2 1 4 
p 0.100000001490116 1 0 3 
2 1 2 
p 0.00406666672726 1 0 3 
2 2 3 
p 0.00406666672726 1 0 3 
2 10 12 
p 0.100000001490116 1 0 3 
2 1 2 
p 0.100000001490116 1 0 3 
2 1 4 
p 0.00406666672726 1 0 3 
2 1 2 
p 0.00406666672726 1 0 3 
2 13 14 
p 0.100000001490116 1 0 3 
2 1 4 
p 0.100000001490116 1 0 3 
2 1 2 
p 0.00406666672726 1 0 3 
2 1 4 
p 0.00406666672726 1 0 3 
2 13 15 
p 0.100000001490116 1 0 3 
2 1 2 
p 0.100000001490116 1 0 3 
2 1 4 
p 0.00406666672726 1 0 3 
2 4 3 
p 0.00406666672726 1 0 3 
2 15 16 
p 0.100000001490116 1 0 3 
2 1 4 
p 0.100000001490116 1 0 3 
2 1 2 
p 0.00406666672726 1 0 3 
2 2 3 
p 0.00406666672726 1 0 3 
2 14 16 
p 0.100000001490116 1 0 3 
2 1 2 
p 0.100000001490116 1 0 3 
2 5 6 
p 0.100000001490116 1 0 3 
2 1 4 
p 0.100000001490116 1 0 3 
2 1 4 
p 0.00406666672726472 1 0 3 
2 1 2 
p 0.00406666672726472 1 0 3 
2 17 18 
p 0.100000001490116 1 0 3 
2 1 4 
p 0.100000001490116 1 0 3 
2 5 7 
p 0.100000001490116 1 0 3 
2 1 2 
p 0.100000001490116 1 0 3 
2 1 2 
p 0.00406666672726472 1 0 3 
2 1 4 
p 0.00406666672726472 1 0 3 
2 17 19 
p 0.100000001490116 1 0 3 
2 1 2 
p 0.100000001490116 1 0 3 
2 7 8 
p 0.100000001490116 1 0 3 
2 1 4 
p 0.100000001490116 1 0 3 
2 1 4 
p 0.00406666672726472 1 0 3 
2 4 3 
p 0.00406666672726472 1 0 3 
2 19 20 
p 0.100000001490116 1 0 3 
2 1 4 
p 0.100000001490116 1 0 3 
2 6 8 
p 0.100000001490116 1 0 3 
2 1 2 
p 0.100000001490116 1 0 3 
2 1 2 
p 0.00406666672726472 1 0 3 
2 2 3 
p 0.00406666672726472 1 0 3 
2 18 20 
p 0.100000001490116 1 0 3 
2 1 2 
p 0.100000001490116 1 0 3 
2 1 4 
p 0.00406666672726 1 0 3 
2 1 2 
p 0.00406666672726 1 0 3 
2 21 22 
p 0.100000001490116 1 0 3 
2 1 4 
p 0.100000001490116 1 0 3 
2 1 2 
p 0.00406666672726 1 0 3 
2 1 4 
p 0.00406666672726 1 0 3 
2 21 23 
p 0.100000001490116 1 0 3 
2 1 2 
p 0.100000001490116 1 0 3 
2 1 4 
p 0.00406666672726 1 0 3 
2 4 3 
p 0.00406666672726 1 0 3 
2 23 24 
p 0.100000001490116 1 0 3 
2 1 4 
p 0.100000001490116 1 0 3 
2 1 2 
p 0.00406666672726 1 0 3 
2 2 3 
p 0.00406666672726 1 0 3 
2 22 24 
p 0.100000001490116 1 0 3 
2 1 2 
p 0.100000001490116 1 0 3 
2 1 4 
p 0.00406666672726 1 0 3 
2 1 2 
p 0.00406666672726 1 0 3 
2 25 26 
p 0.100000001490116 1 0 3 
2 1 4 
p 0.100000001490116 1 0 3 
2 1 2 
p 0.00406666672726 1 0 3 
2 1 4 
p 0.00406666672726 1 0 3 
2 25 27 
p 0.100000001490116 1 0 3 
2 1 2 
p 0.100000001490116 1 0 3 
2 1 4 
p 0.00406666672726 1 0 3 
2 4 3 
p 0.00406666672726 1 0 3 
2 27 28 
p 0.100000001490116 1 0 3 
2 1 4 
p 0.100000001490116 1 0 3 
2 1 2 
p 0.00406666672726 1 0 3 
2 2 3 
p 0.00406666672726 1 0 3 
2 26 28 
p 0.100000001490116 1 0 3 
2 1 2 
p 0.100000001490116 1 0 3 
2 1 2 
p 0.00406666672726 1 0 0.1 
2 1 4 
p 0.00406666672726 1 0 0.1 
2 1 2 
p 0.100000001490116 1 0 0.1 
2 1 4 
p 0.100000001490116 1 0 0.1 
2 2 3 
p 0.00406666672726 1 0 3 
2 1 2 
p 0.00406666672726 1 0 3 
2 2 3 
p 0.100000001490116 1 0 3 
2 4 3 
p 0.00406666672726 1 0 0.1 
2 1 4 
p 0.00406666672726 1 0 0.1 
2 4 3 
p 0.100000001490116 1 0 0.1 
2 1 4 
p 0.100000001490116 1 0 0.1 
2 1 2 
p 0.00406666672726 1 0 0.1 
2 2 3 
p 0.00406666672726 1 0 0.1 
2 2 3 
p 0.100000001490116 1 0 0.1 
2 1 2 
p 0.100000001490116 1 0 0.1 
2 4 3 
p 0.00406666672726 1 0 3 
2 1 4 
p 0.00406666672726 1 0 3 
2 4 3 
p 0.100000001490116 1 0 3 
2 2 3 
p 0.00406666672726 1 0 3 
2 4 3 
p 0.00406666672726 1 0 3 
2 2 3 
p 0.100000001490116 1 0 3 
2 4 3 
p 0.00406666672726 1 0 0.1 
2 2 3 
p 0.00406666672726 1 0 0.1 
2 4 3 
p 0.100000001490116 1 0 0.1 
2 2 3 
p 0.100000001490116 1 0 0.1 
2 4 3 
p 0.00406666672726 1 0 3 
2 2 3 
p 0.00406666672726 1 0 3 
2 4 3 
p 0.100000001490116 1 0 3 
2 1 2 
p 0.00406666672726 1 0 0.1 
2 1 4 
p 0.00406666672726 1 0 0.1 
2 1 2 
p 0.100000001490116 1 0 0.1 
2 1 4 
p 0.100000001490116 1 0 0.1 
2 2 3 
p 0.00406666672726 1 0 3 
2 1 2 
p 0.00406666672726 1 0 3 
2 2 3 
p 0.100000001490116 1 0 3 
2 4 3 
p 0.00406666672726 1 0 0.1 
2 1 4 
p 0.00406666672726 1 0 0.1 
2 4 3 
p 0.100000001490116 1 0 0.1 
2 1 4 
p 0.100000001490116 1 0 0.1 
2 1 2 
p 0.00406666672726 1 0 0.1 
2 2 3 
p 0.00406666672726 1 0 0.1 
2 2 3 
p 0.100000001490116 1 0 0.1 
2 1 2 
p 0.100000001490116 1 0 0.1 
2 4 3 
p 0.00406666672726 1 0 3 
2 1 4 
p 0.00406666672726 1 0 3 
2 4 3 
p 0.100000001490116 1 0 3 
2 2 3 
p 0.00406666672726 1 0 3 
2 4 3 
p 0.00406666672726 1 0 3 
2 2 3 
p 0.100000001490116 1 0 3 
2 4 3 
p 0.00406666672726 1 0 0.1 
2 2 3 
p 0.00406666672726 1 0 0.1 
2 4 3 
p 0.100000001490116 1 0 0.1 
2 2 3 
p 0.100000001490116 1 0 0.1 
2 4 3 
p 0.00406666672726 1 0 3 
2 2 3 
p 0.00406666672726 1 0 3 
2 4 3 
p 0.100000001490116 1 0 3 
2 1 2 
p 0.00406666672726 1 0 0.1 
2 1 4 
p 0.00406666672726 1 0 0.1 
2 1 2 
p 0.100000001490116 1 0 0.1 
2 1 4 
p 0.100000001490116 1 0 0.1 
2 2 3 
p 0.00406666672726 1 0 3 
2 1 2 
p 0.00406666672726 1 0 3 
2 2 3 
p 0.100000001490116 1 0 3 
2 4 3 
p 0.00406666672726 1 0 0.1 
2 1 4 
p 0.00406666672726 1 0 0.1 
2 4 3 
p 0.100000001490116 1 0 0.1 
2 1 4 
p 0.100000001490116 1 0 0.1 
2 1 2 
p 0.00406666672726 1 0 0.1 
2 2 3 
p 0.00406666672726 1 0 0.1 
2 2 3 
p 0.100000001490116 1 0 0.1 
2 1 2 
p 0.100000001490116 1 0 0.1 
2 4 3 
p 0.00406666672726 1 0 3 
2 1 4 
p 0.00406666672726 1 0 3 
2 4 3 
p 0.100000001490116 1 0 3 
2 2 3 
p 0.00406666672726 1 0 3 
2 4 3 
p 0.00406666672726 1 0 3 
2 2 3 
p 0.100000001490116 1 0 3 
2 4 3 
p 0.00406666672726 1 0 0.1 
2 2 3 
p 0.00406666672726 1 0 0.1 
2 4 3 
p 0.100000001490116 1 0 0.1 
2 2 3 
p 0.100000001490116 1 0 0.1 
2 4 3 
p 0.00406666672726 1 0 3 
2 2 3 
p 0.00406666672726 1 0 3 
2 4 3 
p 0.100000001490116 1 0 3 
2 1 2 
p 0.100000001490116 1 0 0.1 
2 1 4 
p 0.100000001490116 1 0 0.1 
2 1 2 
p 0.00406666672726472 1 0 0.1 
2 1 4 
p 0.00406666672726472 1 0 0.1 
2 1 2 
p 0.100000001490116 1 0 0.1 
2 1 4 
p 0.100000001490116 1 0 0.1 
2 2 3 
p 0.100000001490116 1 0 3 
2 2 3 
p 0.00406666672726472 1 0 3 
2 1 2 
p 0.00406666672726472 1 0 3 
2 2 3 
p 0.100000001490116 1 0 3 
2 4 3 
p 0.100000001490116 1 0 0.1 
2 1 4 
p 0.100000001490116 1 0 0.1 
2 4 3 
p 0.00406666672726472 1 0 0.1 
2 1 4 
p 0.00406666672726472 1 0 0.1 
2 4 3 
p 0.100000001490116 1 0 0.1 
2 1 4 
p 0.100000001490116 1 0 0.1 
2 2 3 
p 0.100000001490116 1 0 0.1 
2 1 2 
p 0.100000001490116 1 0 0.1 
2 1 2 
p 0.00406666672726472 1 0 0.1 
2 2 3 
p 0.00406666672726472 1 0 0.1 
2 2 3 
p 0.100000001490116 1 0 0.1 
2 1 2 
p 0.100000001490116 1 0 0.1 
2 4 3 
p 0.100000001490116 1 0 3 
2 4 3 
p 0.00406666672726472 1 0 3 
2 1 4 
p 0.00406666672726472 1 0 3 
2 4 3 
p 0.100000001490116 1 0 3 
2 2 3 
p 0.100000001490116 1 0 3 
2 2 3 
p 0.00406666672726472 1 0 3 
2 4 3 
p 0.00406666672726472 1 0 3 
2 2 3 
p 0.100000001490116 1 0 3 
2 4 3 
p 0.100000001490116 1 0 0.1 
2 2 3 
p 0.100000001490116 1 0 0.1 
2 4 3 
p 0.00406666672726472 1 0 0.1 
2 2 3 
p 0.00406666672726472 1 0 0.1 
2 4 3 
p 0.100000001490116 1 0 0.1 
2 2 3 
p 0.100000001490116 1 0 0.1 
2 4 3 
p 0.100000001490116 1 0 3 
2 4 3 
p 0.00406666672726472 1 0 3 
2 2 3 
p 0.00406666672726472 1 0 3 
2 4 3 
p 0.100000001490116 1 0 3 
2 1 2 
p 0.00406666672726 1 0 0.1 
2 1 4 
p 0.00406666672726 1 0 0.1 
2 1 2 
p 0.100000001490116 1 0 0.1 
2 1 4 
p 0.100000001490116 1 0 0.1 
2 2 3 
p 0.00406666672726 1 0 3 
2 1 2 
p 0.00406666672726 1 0 3 
2 2 3 
p 0.100000001490116 1 0 3 
2 4 3 
p 0.00406666672726 1 0 0.1 
2 1 4 
p 0.00406666672726 1 0 0.1 
2 4 3 
p 0.100000001490116 1 0 0.1 
2 1 4 
p 0.100000001490116 1 0 0.1 
2 1 2 
p 0.00406666672726 1 0 0.1 
2 2 3 
p 0.00406666672726 1 0 0.1 
2 2 3 
p 0.100000001490116 1 0 0.1 
2 1 2 
p 0.100000001490116 1 0 0.1 
2 4 3 
p 0.00406666672726 1 0 3 
2 1 4 
p 0.00406666672726 1 0 3 
2 4 3 
p 0.100000001490116 1 0 3 
2 2 3 
p 0.00406666672726 1 0 3 
2 4 3 
p 0.00406666672726 1 0 3 
2 2 3 
p 0.100000001490116 1 0 3 
2 4 3 
p 0.00406666672726 1 0 0.1 
2 2 3 
p 0.00406666672726 1 0 0.1 
2 4 3 
p 0.100000001490116 1 0 0.1 
2 2 3 
p 0.100000001490116 1 0 0.1 
2 4 3 
p 0.00406666672726 1 0 3 
2 2 3 
p 0.00406666672726 1 0 3 
2 4 3 
p 0.100000001490116 1 0 3 
2 1 2 
p 0.00406666672726 1 0 0.1 
2 1 4 
p 0.00406666672726 1 0 0.1 
2 1 2 
p 0.100000001490116 1 0 0.1 
2 1 4 
p 0.100000001490116 1 0 0.1 
2 2 3 
p 0.00406666672726 1 0 3 
2 1 2 
p 0.00406666672726 1 0 3 
2 2 3 
p 0.100000001490116 1 0 3 
2 4 3 
p 0.00406666672726 1 0 0.1 
2 1 4 
p 0.00406666672726 1 0 0.1 
2 4 3 
p 0.100000001490116 1 0 0.1 
2 1 4 
p 0.100000001490116 1 0 0.1 
2 1 2 
p 0.00406666672726 1 0 0.1 
2 2 3 
p 0.00406666672726 1 0 0.1 
2 2 3 
p 0.100000001490116 1 0 0.1 
2 1 2 
p 0.100000001490116 1 0 0.1 
2 4 3 
p 0.00406666672726 1 0 3 
2 1 4 
p 0.00406666672726 1 0 3 
2 4 3 
p 0.100000001490116 1 0 3 
2 2 3 
p 0.00406666672726 1 0 3 
2 4 3 
p 0.00406666672726 1 0 3 
2 2 3 
p 0.100000001490116 1 0 3 
2 4 3 
p 0.00406666672726 1 0 0.1 
2 2 3 
p 0.00406666672726 1 0 0.1 
2 4 3 
p 0.100000001490116 1 0 0.1 
2 2 3 
p 0.100000001490116 1 0 0.1 
2 4 3 
p 0.00406666672726 1 0 3 
2 2 3 
p 0.00406666672726 1 0 3 
2 4 3 
p 0.100000001490116 1 0 3 
Surfaces 42
1 0 0 0 1 0 -0 0 0 1 0 -1 0 
1 0 0 0 -0 1 0 0 0 1 1 0 -0 
1 0 0 50 0 0 1 1 0 -0 -0 1 0 
1 0 50 0 -0 1 0 0 0 1 1 0 -0 
1 0 0 0 0 0 1 1 0 -0 -0 1 0 
1 50 0 0 1 0 -0 0 0 1 0 -1 0 
1 0 0 0 1 0 -0 0 0 1 0 -1 0 
1 0 0 0 0 0 1 1 0 -0 -0 1 0 
1 0 0 0 -0 1 0 0 0 1 1 0 -0 
1 3 0 0 1 0 -0 0 0 1 0 -1 0 
1 0 3 0 -0 1 0 0 0 1 1 0 -0 
1 0 0 0 1 0 -0 0 0 1 0 -1 0 
1 0 0 0 0 0 1 1 0 -0 -0 1 0 
1 0 0 0 -0 1 0 0 0 1 1 0 -0 
1 3 0 0 1 0 -0 0 0 1 0 -1 0 
1 0 3 0 -0 1 0 0 0 1 1 0 -0 
1 0 0 0 1 0 -0 0 0 1 0 -1 0 
1 0 0 0 0 0 1 1 0 -0 -0 1 0 
1 0 0 0 -0 1 0 0 0 1 1 0 -0 
1 3 0 0 1 0 -0 0 0 1 0 -1 0 
1 0 3 0 -0 1 0 0 0 1 1 0 -0 
1 0 0 0 1 0 -0 0 0 1 0 -1 0 
1 0 0 0 0 0 1 1 0 -0 -0 1 0 
1 0 0 0 -0 1 0 0 0 1 1 0 -0 
1 3 0 0 1 0 -0 0 0 1 0 -1 0 
1 0 3 0 -0 1 0 0 0 1 1 0 -0 
1 0 0 0 1 0 -0 0 0 1 0 -1 0 
1 0 0 0 0 0 1 1 0 -0 -0 1 0 
1 0 0 0 -0 1 0 0 0 1 1 0 -0 
1 3 0 0 1 0 -0 0 0 1 0 -1 0 
1 0 3 0 -0 1 0 0 0 1 1 0 -0 
1 0 0 0 1 0 -0 0 0 1 0 -1 0 
1 0 0 0 0 0 1 1 0 -0 -0 1 0 
1 0 0 0 -0 1 0 0 0 1 1 0 -0 
1 3 0 0 1 0 -0 0 0 1 0 -1 0 
1 0 3 0 -0 1 0 0 0 1 1 0 -0 
1 0 0 0.10000000000000001 0 0 1 1 0 -0 -0 1 0 
1 0 0 0.10000000000000001 0 0 1 1 0 -0 -0 1 0 
1 0 0 0.10000000000000001 0 0 1 1 0 -0 -0 1 0 
1 0 0 0.10000000000000001 0 0 1 1 0 -0 -0 1 0 
1 0 0 0.10000000000000001 0 0 1 1 0 -0 -0 1 0 
1 0 0 0.10000000000000001 0 0 1 1 0 -0 -0 1 0 
Triangulations 72
4 2 1 0
0 0 0 0 0 50 0 50 50 0 50 0 0 0 50 0 50 -50 0 -50 2 4 3 2 1 4 
4 2 1 0
0 0 0 50 0 0 50 0 50 0 0 50 0 0 0 50 50 50 50 0 3 2 1 3 1 4 
4 2 1 0
0 0 50 0 50 50 50 50 50 50 0 50 0 0 0 50 50 50 50 0 3 2 1 3 1 4 
4 2 1 0
0 50 0 50 50 0 50 50 50 0 50 50 0 0 0 50 50 50 50 0 3 2 1 3 1 4 
4 2 1 0
0 0 0 0 50 0 50 50 0 50 0 0 0 0 0 50 50 50 50 0 3 2 1 3 1 4 
8 8 1 1.77635683940025e-015
0 0 0 0 50 0 50 50 0 50 0 0 20.5 19.5 0 20.5 22.5 0 23.5 19.5 0 23.5 22.5 0 0 0 0 50 50 50 50 0 20.5 19.5 20.5 22.5 23.5 19.5 23.5 22.5 6 1 5 7 5 1 2 6 8 2 1 6 4 8 7 4 7 1 3 8 4 3 2 8 
28 38 1 8.88178419700125e-016
0 0 0 0 50 0 50 50 0 50 0 0 26 19.5 0 26 22.5 0 29 19.5 0 29 22.5 0 26 23.75 0 26 26.75 0 29 23.75 0 29 26.75 0 20.5 23.75 0 20.5 26.75 0 23.5 23.75 0 23.5 26.75 0 20.5 19.5 0 20.5 22.5 0 23.5 19.5 0 23.5 22.5 0 26 28 0 26 31 0 29 28 0 29 31 0 20.5 28 0 20.5 31 0 23.5 28 0 23.5 31 0 0 0 0 50 50 50 50 0 26 19.5 26 22.5 29 19.5 29 22.5 26 23.75 26 26.75 29 23.75 29 26.75 20.5 23.75 20.5 26.75 23.5 23.75 23.5 26.75 20.5 19.5 20.5 22.5 23.5 19.5 23.5 22.5 26 28 26 31 29 28 29 31 20.5 28 20.5 31 23.5 28 23.5 31 18 1 17 19 17 1 13 1 18 5 19 1 15 18 20 15 13 18 6 20 19 6 19 5 9 20 6 9 15 20 4 7 5 4 5 1 2 13 14 2 1 13 2 14 25 8 7 4 26 2 25 27 14 16 27 25 14 10 16 15 10 15 9 11 6 8 11 9 6 11 8 4 21 27 16 21 16 10 28 2 26 22 28 27 22 2 28 22 27 21 23 10 12 23 21 10 3 12 11 3 24 23 3 22 24 3 11 4 3 2 22 3 23 12 
4 2 1 0
50 0 0 50 0 50 50 50 50 50 50 0 0 0 50 0 50 -50 0 -50 2 4 3 2 1 4 
4 2 1 0
0 0 0 0 0 0.1 0 3 0.1 0 3 0 0 0 0.1 0 0.1 -3 0 -3 2 4 3 2 1 4 
4 2 1 0
0 0 0 0 3 0 3 3 0 3 0 0 0 0 0 3 3 3 3 0 3 2 1 3 1 4 
4 2 1 0
26 19.5 0 26 19.5 0.1 26 22.5 0.1 26 22.5 0 0 0 0.1 0 0.1 -3 0 -3 2 1 4 2 4 3 
4 2 1 0
0 0 0 3 0 0 3 0 0.1 0 0 0.1 0 0 0 3 0.1 3 0.1 0 3 2 1 3 1 4 
4 2 1 0
26 19.5 0 29 19.5 0 29 19.5 0.1 26 19.5 0.1 0 0 0 3 0.1 3 0.1 0 3 2 1 3 1 4 
4 2 1 0
3 0 0 3 0 0.1 3 3 0.1 3 3 0 0 0 0.1 0 0.1 -3 0 -3 2 4 3 2 1 4 
4 2 1 0
29 19.5 0 29 19.5 0.1 29 22.5 0.1 29 22.5 0 0 0 0.1 0 0.1 -3 0 -3 2 1 4 2 4 3 
4 2 1 0
0 3 0 3 3 0 3 3 0.1 0 3 0.1 0 0 0 3 0.1 3 0.1 0 3 2 1 3 1 4 
4 2 1 0
26 22.5 0 29 22.5 0 29 22.5 0.1 26 22.5 0.1 0 0 0 3 0.1 3 0.1 0 3 2 1 3 1 4 
4 2 1 0
0 0 0 0 0 0.1 0 3 0.1 0 3 0 0 0 0.1 0 0.1 -3 0 -3 2 4 3 2 1 4 
4 2 1 0
0 0 0 0 3 0 3 3 0 3 0 0 0 0 0 3 3 3 3 0 3 2 1 3 1 4 
4 2 1 0
26 23.75 0 26 23.75 0.1 26 26.75 0.1 26 26.75 0 0 0 0.1 0 0.1 -3 0 -3 2 1 4 2 4 3 
4 2 1 0
0 0 0 3 0 0 3 0 0.1 0 0 0.1 0 0 0 3 0.1 3 0.1 0 3 2 1 3 1 4 
4 2 1 0
26 23.75 0 29 23.75 0 29 23.75 0.1 26 23.75 0.1 0 0 0 3 0.1 3 0.1 0 3 2 1 3 1 4 
4 2 1 0
3 0 0 3 0 0.1 3 3 0.1 3 3 0 0 0 0.1 0 0.1 -3 0 -3 2 4 3 2 1 4 
4 2 1 0
29 23.75 0 29 23.75 0.1 29 26.75 0.1 29 26.75 0 0 0 0.1 0 0.1 -3 0 -3 2 1 4 2 4 3 
4 2 1 0
0 3 0 3 3 0 3 3 0.1 0 3 0.1 0 0 0 3 0.1 3 0.1 0 3 2 1 3 1 4 
4 2 1 0
26 26.75 0 29 26.75 0 29 26.75 0.1 26 26.75 0.1 0 0 0 3 0.1 3 0.1 0 3 2 1 3 1 4 
4 2 1 0
0 0 0 0 0 0.1 0 3 0.1 0 3 0 0 0 0.1 0 0.1 -3 0 -3 2 4 3 2 1 4 
4 2 1 0
0 0 0 0 3 0 3 3 0 3 0 0 0 0 0 3 3 3 3 0 3 2 1 3 1 4 
4 2 1 0
20.5 23.75 0 20.5 23.75 0.1 20.5 26.75 0.1 20.5 26.75 0 0 0 0.1 0 0.1 -3 0 -3 2 1 4 2 4 3 
4 2 1 0
0 0 0 3 0 0 3 0 0.1 0 0 0.1 0 0 0 3 0.1 3 0.1 0 3 2 1 3 1 4 
4 2 1 0
20.5 23.75 0 23.5 23.75 0 23.5 23.75 0.1 20.5 23.75 0.1 0 0 0 3 0.1 3 0.1 0 3 2 1 3 1 4 
4 2 1 0
3 0 0 3 0 0.1 3 3 0.1 3 3 0 0 0 0.1 0 0.1 -3 0 -3 2 4 3 2 1 4 
4 2 1 0
23.5 23.75 0 23.5 23.75 0.1 23.5 26.75 0.1 23.5 26.75 0 0 0 0.1 0 0.1 -3 0 -3 2 1 4 2 4 3 
4 2 1 0
0 3 0 3 3 0 3 3 0.1 0 3 0.1 0 0 0 3 0.1 3 0.1 0 3 2 1 3 1 4 
4 2 1 0
20.5 26.75 0 23.5 26.75 0 23.5 26.75 0.1 20.5 26.75 0.1 0 0 0 3 0.1 3 0.1 0 3 2 1 3 1 4 
4 2 1 0
20.5 19.5 0 20.5 19.5 0.1 20.5 22.5 0.1 20.5 22.5 0 0 0 0.1 0 0.1 -3 0 -3 2 1 4 2 4 3 
4 2 1 0
0 0 0 0 0 0.1 0 3 0.1 0 3 0 0 0 0.1 0 0.1 -3 0 -3 2 4 3 2 1 4 
4 2 1 0
0 0 0 0 3 0 3 3 0 3 0 0 0 0 0 3 3 3 3 0 3 2 1 3 1 4 
4 2 1 0
20.5 19.5 0 20.5 19.5 0.1 20.5 22.5 0.1 20.5 22.5 0 0 0 0.1 0 0.1 -3 0 -3 2 1 4 2 4 3 
4 2 1 0
20.5 19.5 0 23.5 19.5 0 23.5 19.5 0.1 20.5 19.5 0.1 0 0 0 3 0.1 3 0.1 0 3 2 1 3 1 4 
4 2 1 0
0 0 0 3 0 0 3 0 0.1 0 0 0.1 0 0 0 3 0.1 3 0.1 0 3 2 1 3 1 4 
4 2 1 0
20.5 19.5 0 23.5 19.5 0 23.5 19.5 0.1 20.5 19.5 0.1 0 0 0 3 0.1 3 0.1 0 3 2 1 3 1 4 
4 2 1 0
23.5 19.5 0 23.5 19.5 0.1 23.5 22.5 0.1 23.5 22.5 0 0 0 0.1 0 0.1 -3 0 -3 2 1 4 2 4 3 
4 2 1 0
3 0 0 3 0 0.1 3 3 0.1 3 3 0 0 0 0.1 0 0.1 -3 0 -3 2 4 3 2 1 4 
4 2 1 0
23.5 19.5 0 23.5 19.5 0.1 23.5 22.5 0.1 23.5 22.5 0 0 0 0.1 0 0.1 -3 0 -3 2 1 4 2 4 3 
4 2 1 0
20.5 22.5 0 23.5 22.5 0 23.5 22.5 0.1 20.5 22.5 0.1 0 0 0 3 0.1 3 0.1 0 3 2 1 3 1 4 
4 2 1 0
0 3 0 3 3 0 3 3 0.1 0 3 0.1 0 0 0 3 0.1 3 0.1 0 3 2 1 3 1 4 
4 2 1 0
20.5 22.5 0 23.5 22.5 0 23.5 22.5 0.1 20.5 22.5 0.1 0 0 0 3 0.1 3 0.1 0 3 2 1 3 1 4 
4 2 1 0
0 0 0 0 0 0.1 0 3 0.1 0 3 0 0 0 0.1 0 0.1 -3 0 -3 2 4 3 2 1 4 
4 2 1 0
0 0 0 0 3 0 3 3 0 3 0 0 0 0 0 3 3 3 3 0 3 2 1 3 1 4 
4 2 1 0
26 28 0 26 28 0.1 26 31 0.1 26 31 0 0 0 0.1 0 0.1 -3 0 -3 2 1 4 2 4 3 
4 2 1 0
0 0 0 3 0 0 3 0 0.1 0 0 0.1 0 0 0 3 0.1 3 0.1 0 3 2 1 3 1 4 
4 2 1 0
26 28 0 29 28 0 29 28 0.1 26 28 0.1 0 0 0 3 0.1 3 0.1 0 3 2 1 3 1 4 
4 2 1 0
3 0 0 3 0 0.1 3 3 0.1 3 3 0 0 0 0.1 0 0.1 -3 0 -3 2 4 3 2 1 4 
4 2 1 0
29 28 0 29 28 0.1 29 31 0.1 29 31 0 0 0 0.1 0 0.1 -3 0 -3 2 1 4 2 4 3 
4 2 1 0
0 3 0 3 3 0 3 3 0.1 0 3 0.1 0 0 0 3 0.1 3 0.1 0 3 2 1 3 1 4 
4 2 1 0
26 31 0 29 31 0 29 31 0.1 26 31 0.1 0 0 0 3 0.1 3 0.1 0 3 2 1 3 1 4 
4 2 1 0
0 0 0 0 0 0.1 0 3 0.1 0 3 0 0 0 0.1 0 0.1 -3 0 -3 2 4 3 2 1 4 
4 2 1 0
0 0 0 0 3 0 3 3 0 3 0 0 0 0 0 3 3 3 3 0 3 2 1 3 1 4 
4 2 1 0
20.5 28 0 20.5 28 0.1 20.5 31 0.1 20.5 31 0 0 0 0.1 0 0.1 -3 0 -3 2 1 4 2 4 3 
4 2 1 0
0 0 0 3 0 0 3 0 0.1 0 0 0.1 0 0 0 3 0.1 3 0.1 0 3 2 1 3 1 4 
4 2 1 0
20.5 28 0 23.5 28 0 23.5 28 0.1 20.5 28 0.1 0 0 0 3 0.1 3 0.1 0 3 2 1 3 1 4 
4 2 1 0
3 0 0 3 0 0.1 3 3 0.1 3 3 0 0 0 0.1 0 0.1 -3 0 -3 2 4 3 2 1 4 
4 2 1 0
23.5 28 0 23.5 28 0.1 23.5 31 0.1 23.5 31 0 0 0 0.1 0 0.1 -3 0 -3 2 1 4 2 4 3 
4 2 1 0
0 3 0 3 3 0 3 3 0.1 0 3 0.1 0 0 0 3 0.1 3 0.1 0 3 2 1 3 1 4 
4 2 1 0
20.5 31 0 23.5 31 0 23.5 31 0.1 20.5 31 0.1 0 0 0 3 0.1 3 0.1 0 3 2 1 3 1 4 
4 2 1 0
0 0 0.1 0 3 0.1 3 3 0.1 3 0 0.1 0 0 0 3 3 3 3 0 3 2 1 3 1 4 
4 2 1 0
0 0 0.1 0 3 0.1 3 3 0.1 3 0 0.1 0 0 0 3 3 3 3 0 3 2 1 3 1 4 
4 2 1 0
0 0 0.1 0 3 0.1 3 3 0.1 3 0 0.1 0 0 0 3 3 3 3 0 3 2 1 3 1 4 
4 2 1 0
0 0 0.1 0 3 0.1 3 3 0.1 3 0 0.1 0 0 0 3 3 3 3 0 3 2 1 3 1 4 
4 2 1 0
0 0 0.1 0 3 0.1 3 3 0.1 3 0 0.1 0 0 0 3 3 3 3 0 3 2 1 3 1 4 
4 2 1 0
0 0 0.1 0 3 0.1 3 3 0.1 3 0 0.1 0 0 0 3 3 3 3 0 3 2 1 3 1 4 

TShapes 222
Ve
1e-007
0 0 50
0 0

0101101
*
Ve
1e-007
0 0 0
0 0

0101101
*
Ed
 1e-007 1 1 0
1  1 0 0 50
2  1 1 0 0 50
2  2 2 0 0 50
6  1 1 0
6  2 2 0
0

0101000
-222 0 +221 0 *
Ve
1e-007
0 50 50
0 0

0101101
*
Ed
 1e-007 1 1 0
1  2 0 0 50
2  3 1 0 0 50
2  4 3 0 0 50
6  3 1 0
6  4 3 0
0

0101000
-219 0 +222 0 *
Ve
1e-007
0 50 0
0 0

0101101
*
Ed
 1e-007 1 1 0
1  3 0 0 50
2  5 1 0 0 50
2  6 4 0 0 50
6  5 1 0
6  6 4 0
0

0101000
-219 0 +217 0 *
Ed
 1e-007 1 1 0
1  4 0 0 50
2  7 1 0 0 50
2  8 5 0 0 50
6  7 1 0
6  8 5 0
6  9 6 3
6  10 7 3
0

0101000
-217 0 +221 0 *
Wi

0101100
-220 0 -218 0 +216 0 +215 0 *
Fa
0  1e-007 1 0
2  1
0111000
+214 0 *
Ve
1e-007
50 0 0
0 0

0101101
*
Ed
 1e-007 1 1 0
1  5 0 0 50
2  9 2 0 0 50
2  10 5 0 0 50
6  11 2 0
6  12 5 0
6  13 6 3
6  14 7 3
0

0101000
-212 0 +221 0 *
Ve
1e-007
50 0 50
0 0

0101101
*
Ed
 1e-007 1 1 0
1  6 0 0 50
2  11 6 0 0 50
2  12 2 0 0 50
6  15 8 0
6  16 2 0
0

0101000
-210 0 +212 0 *
Ed
 1e-007 1 1 0
1  7 0 0 50
2  13 2 0 0 50
2  14 3 0 0 50
6  17 2 0
6  18 3 0
0

0101000
-210 0 +222 0 *
Wi

0101100
-211 0 -209 0 +208 0 +220 0 *
Fa
0  1e-007 2 0
2  2
0101000
+207 0 *
Ve
1e-007
50 50 50
0 0

0101101
*
Ed
 1e-007 1 1 0
1  8 0 0 50
2  15 4 0 0 50
2  16 3 0 0 50
6  19 4 0
6  20 3 0
0

0101000
-205 0 +219 0 *
Ed
 1e-007 1 1 0
1  9 0 0 50
2  17 6 0 0 50
2  18 3 0 0 50
6  21 8 0
6  22 3 0
0

0101000
-205 0 +210 0 *
Wi

0101100
-218 0 -204 0 +203 0 +208 0 *
Fa
0  1e-007 3 0
2  3
0101000
+202 0 *
Ve
1e-007
50 50 0
0 0

0101101
*
Ed
 1e-007 1 1 0
1  10 0 0 50
2  19 4 0 0 50
2  20 5 0 0 50
6  23 4 0
6  24 5 0
6  25 6 3
6  26 7 3
0

0101000
-200 0 +217 0 *
Ed
 1e-007 1 1 0
1  11 0 0 50
2  21 6 0 0 50
2  22 4 0 0 50
6  27 8 0
6  28 4 0
0

0101000
-205 0 +200 0 *
Wi

0101100
-199 0 -198 0 +204 0 +216 0 *
Fa
0  1e-007 4 0
2  4
0101000
+197 0 *
Ed
 1e-007 1 1 0
1  12 0 0 50
2  23 6 0 0 50
2  24 5 0 0 50
6  29 8 0
6  30 5 0
6  31 6 3
6  32 7 3
0

0101000
-200 0 +212 0 *
Wi

0101100
-215 2 -199 2 +211 2 +195 2 *
Ve
2.12133034355964e-007
0 3 0
0 0

0101101
*
Ve
2.12133034355964e-007
0 0 0
0 0

0101101
*
Ed
 1e-007 1 1 0
1  13 0 0 3
2  25 7 0 0 3
2  26 8 0 0 3
6  33 9 0
6  34 10 0
2  27 5 7 0 3
6  35 7 8
6  36 11 8
0

0101000
-193 0 +192 0 *
Ve
2.12133034355964e-007
3 0 0
0 0

0101101
*
Ed
 1e-007 1 1 0
1  14 0 0 3
2  28 9 0 0 3
2  29 8 0 0 3
6  37 12 0
6  38 10 0
2  30 5 7 0 3
6  39 7 8
6  40 13 8
0

0101000
-190 0 +192 0 *
Ve
2.12133034355964e-007
3 3 0
0 0

0101101
*
Ed
 1e-007 1 1 0
1  15 0 0 3
2  31 10 0 0 3
2  32 8 0 0 3
6  41 14 0
6  42 10 0
2  33 5 7 0 3
6  43 7 8
6  44 15 8
0

0101000
-188 0 +190 0 *
Ed
 1e-007 1 1 0
1  16 0 0 3
2  34 11 0 0 3
2  35 8 0 0 3
6  45 16 0
6  46 10 0
2  36 5 7 0 3
6  47 7 8
6  48 17 8
0

0101000
-188 0 +193 0 *
Wi

0101100
+191 6 -189 6 -187 6 +186 6 *
Ve
2.12133034355964e-007
0 3 0
0 0

0101101
*
Ve
2.12133034355964e-007
0 0 0
0 0

0101101
*
Ed
 1e-007 1 1 0
1  17 0 0 3
2  37 12 0 0 3
2  38 13 0 0 3
6  49 18 0
6  50 19 0
2  39 5 11 0 3
6  51 7 12
6  52 20 12
0

0101000
-184 0 +183 0 *
Ve
2.12133034355964e-007
3 0 0
0 0

0101101
*
Ed
 1e-007 1 1 0
1  18 0 0 3
2  40 14 0 0 3
2  41 13 0 0 3
6  53 21 0
6  54 19 0
2  42 5 11 0 3
6  55 7 12
6  56 22 12
0

0101000
-181 0 +183 0 *
Ve
2.12133034355964e-007
3 3 0
0 0

0101101
*
Ed
 1e-007 1 1 0
1  19 0 0 3
2  43 15 0 0 3
2  44 13 0 0 3
6  57 23 0
6  58 19 0
2  45 5 11 0 3
6  59 7 12
6  60 24 12
0

0101000
-179 0 +181 0 *
Ed
 1e-007 1 1 0
1  20 0 0 3
2  46 16 0 0 3
2  47 13 0 0 3
6  61 25 0
6  62 19 0
2  48 5 11 0 3
6  63 7 12
6  64 26 12
0

0101000
-179 0 +184 0 *
Wi

0101100
+182 10 -180 10 -178 10 +177 10 *
Ve
2.12133034355964e-007
0 3 0
0 0

0101101
*
Ve
2.12133034355964e-007
0 0 0
0 0

0101101
*
Ed
 1e-007 1 1 0
1  21 0 0 3
2  49 17 0 0 3
2  50 18 0 0 3
6  65 27 0
6  66 28 0
2  51 5 15 0 3
6  67 7 16
6  68 29 16
0

0101000
-175 0 +174 0 *
Ve
2.12133034355964e-007
3 0 0
0 0

0101101
*
Ed
 1e-007 1 1 0
1  22 0 0 3
2  52 19 0 0 3
2  53 18 0 0 3
6  69 30 0
6  70 28 0
2  54 5 15 0 3
6  71 7 16
6  72 31 16
0

0101000
-172 0 +174 0 *
Ve
2.12133034355964e-007
3 3 0
0 0

0101101
*
Ed
 1e-007 1 1 0
1  23 0 0 3
2  55 20 0 0 3
2  56 18 0 0 3
6  73 32 0
6  74 28 0
2  57 5 15 0 3
6  75 7 16
6  76 33 16
0

0101000
-170 0 +172 0 *
Ed
 1e-007 1 1 0
1  24 0 0 3
2  58 21 0 0 3
2  59 18 0 0 3
6  77 34 0
6  78 28 0
2  60 5 15 0 3
6  79 7 16
6  80 35 16
0

0101000
-170 0 +175 0 *
Wi

0101100
+173 14 -171 14 -169 14 +168 14 *
Ve
2.12133034355964e-007
0 3 0
0 0

0101101
*
Ve
2.12133034355964e-007
0 0 0
0 0

0101101
*
Ed
 1e-007 1 1 0
1  25 0 0 3
2  61 22 0 0 3
2  62 23 0 0 3
2  63 5 20 0 3
6  81 6 21
6  82 36 21
6  83 37 0
6  84 38 0
2  64 5 22 0 3
6  85 7 23
6  86 39 23
0

0101000
-166 0 +165 0 *
Ve
2.12133034355964e-007
3 0 0
0 0

0101101
*
Ed
 1e-007 1 1 0
1  26 0 0 3
2  65 24 0 0 3
2  66 23 0 0 3
2  67 5 20 0 3
6  87 6 21
6  88 40 21
6  89 41 0
6  90 38 0
2  68 5 22 0 3
6  91 7 23
6  92 42 23
0

0101000
-163 0 +165 0 *
Ve
2.12133034355964e-007
3 3 0
0 0

0101101
*
Ed
 1e-007 1 1 0
1  27 0 0 3
2  69 25 0 0 3
2  70 23 0 0 3
2  71 5 20 0 3
6  93 6 21
6  94 43 21
6  95 44 0
6  96 38 0
2  72 5 22 0 3
6  97 7 23
6  98 45 23
0

0101000
-161 0 +163 0 *
Ed
 1e-007 1 1 0
1  28 0 0 3
2  73 26 0 0 3
2  74 23 0 0 3
2  75 5 20 0 3
6  99 6 21
6  100 46 21
6  101 47 0
6  102 38 0
2  76 5 22 0 3
6  103 7 23
6  104 48 23
0

0101000
-161 0 +166 0 *
Wi

0101100
+164 18 -162 18 -160 18 +159 18 *
Ve
2.12133034355964e-007
0 3 0
0 0

0101101
*
Ve
2.12133034355964e-007
0 0 0
0 0

0101101
*
Ed
 1e-007 1 1 0
1  29 0 0 3
2  77 27 0 0 3
2  78 28 0 0 3
6  105 49 0
6  106 50 0
2  79 5 26 0 3
6  107 7 27
6  108 51 27
0

0101000
-157 0 +156 0 *
Ve
2.12133034355964e-007
3 0 0
0 0

0101101
*
Ed
 1e-007 1 1 0
1  30 0 0 3
2  80 29 0 0 3
2  81 28 0 0 3
6  109 52 0
6  110 50 0
2  82 5 26 0 3
6  111 7 27
6  112 53 27
0

0101000
-154 0 +156 0 *
Ve
2.12133034355964e-007
3 3 0
0 0

0101101
*
Ed
 1e-007 1 1 0
1  31 0 0 3
2  83 30 0 0 3
2  84 28 0 0 3
6  113 54 0
6  114 50 0
2  85 5 26 0 3
6  115 7 27
6  116 55 27
0

0101000
-152 0 +154 0 *
Ed
 1e-007 1 1 0
1  32 0 0 3
2  86 31 0 0 3
2  87 28 0 0 3
6  117 56 0
6  118 50 0
2  88 5 26 0 3
6  119 7 27
6  120 57 27
0

0101000
-152 0 +157 0 *
Wi

0101100
+155 25 -153 25 -151 25 +150 25 *
Ve
2.12133034355964e-007
0 3 0
0 0

0101101
*
Ve
2.12133034355964e-007
0 0 0
0 0

0101101
*
Ed
 1e-007 1 1 0
1  33 0 0 3
2  89 32 0 0 3
2  90 33 0 0 3
6  121 58 0
6  122 59 0
2  91 5 30 0 3
6  123 7 31
6  124 60 31
0

0101000
-148 0 +147 0 *
Ve
2.12133034355964e-007
3 0 0
0 0

0101101
*
Ed
 1e-007 1 1 0
1  34 0 0 3
2  92 34 0 0 3
2  93 33 0 0 3
6  125 61 0
6  126 59 0
2  94 5 30 0 3
6  127 7 31
6  128 62 31
0

0101000
-145 0 +147 0 *
Ve
2.12133034355964e-007
3 3 0
0 0

0101101
*
Ed
 1e-007 1 1 0
1  35 0 0 3
2  95 35 0 0 3
2  96 33 0 0 3
6  129 63 0
6  130 59 0
2  97 5 30 0 3
6  131 7 31
6  132 64 31
0

0101000
-143 0 +145 0 *
Ed
 1e-007 1 1 0
1  36 0 0 3
2  98 36 0 0 3
2  99 33 0 0 3
6  133 65 0
6  134 59 0
2  100 5 30 0 3
6  135 7 31
6  136 66 31
0

0101000
-143 0 +148 0 *
Wi

0101100
+146 29 -144 29 -142 29 +141 29 *
Fa
0  1e-007 5 2
2  7
0101000
+194 0 +185 0 +176 0 +167 0 +158 0 +149 0 +140 0 *
Wi

0101100
-209 0 -203 0 +198 0 +195 0 *
Fa
0  1e-007 6 0
2  8
0111000
+138 0 *
Ve
1e-007
0 0 0.1
0 0

0101101
*
Ed
 1e-007 1 1 0
1  37 0 0 0.1
2  101 7 0 0 0.1
2  102 9 0 0 0.1
6  137 9 0
6  138 12 0
6  139 11 8
6  140 13 8
0

0101000
-136 0 +192 0 *
Ve
1e-007
0 3 0.1
0 0

0101101
*
Ed
 1e-007 1 1 0
1  38 0 0 3
2  103 7 0 0 3
2  104 37 0 0 3
6  141 9 0
6  142 67 0
6  143 11 8
0

0101000
-134 0 +136 0 *
Ed
 1e-007 1 1 0
1  39 0 0 0.1
2  105 7 0 0 0.1
2  106 11 0 0 0.1
6  144 9 0
6  145 16 0
6  146 11 8
6  147 17 8
0

0101000
-134 0 +193 0 *
Wi

0101100
-135 6 -133 6 +191 6 +132 6 *
Fa
0  1e-007 7 6
2  11
0101000
+131 0 *
Ve
1e-007
3 0 0.1
0 0

0101101
*
Ed
 1e-007 1 1 0
1  40 0 0 0.1
2  107 10 0 0 0.1
2  108 9 0 0 0.1
6  148 14 0
6  149 12 0
6  150 13 8
6  151 15 8
0

0101000
-129 0 +190 0 *
Ed
 1e-007 1 1 0
1  41 0 0 3
2  109 9 0 0 3
2  110 37 0 0 3
6  152 12 0
6  153 67 0
6  154 13 8
0

0101000
-129 0 +136 0 *
Wi

0101100
-189 6 -128 6 +135 6 +127 6 *
Fa
0  1e-007 9 6
2  13
0101000
+126 0 *
Ve
1e-007
3 3 0.1
0 0

0101101
*
Ed
 1e-007 1 1 0
1  42 0 0 3
2  111 10 0 0 3
2  112 37 0 0 3
6  155 14 0
6  156 67 0
6  157 15 8
0

0101000
-124 0 +129 0 *
Ed
 1e-007 1 1 0
1  43 0 0 0.1
2  113 10 0 0 0.1
2  114 11 0 0 0.1
6  158 14 0
6  159 16 0
6  160 15 8
6  161 17 8
0

0101000
-124 0 +188 0 *
Wi

0101100
-128 6 -123 6 +187 6 +122 6 *
Fa
0  1e-007 10 6
2  15
0101000
+121 0 *
Ed
 1e-007 1 1 0
1  44 0 0 3
2  115 11 0 0 3
2  116 37 0 0 3
6  162 16 0
6  163 67 0
6  164 17 8
0

0101000
-124 0 +134 0 *
Wi

0101100
-186 6 -122 6 +132 6 +119 6 *
Fa
0  1e-007 11 6
2  17
0101000
+118 0 *
Ve
1e-007
0 0 0.1
0 0

0101101
*
Ed
 1e-007 1 1 0
1  45 0 0 0.1
2  117 12 0 0 0.1
2  118 14 0 0 0.1
6  165 18 0
6  166 21 0
6  167 20 12
6  168 22 12
0

0101000
-116 0 +183 0 *
Ve
1e-007
0 3 0.1
0 0

0101101
*
Ed
 1e-007 1 1 0
1  46 0 0 3
2  119 12 0 0 3
2  120 38 0 0 3
6  169 18 0
6  170 68 0
6  171 20 12
0

0101000
-114 0 +116 0 *
Ed
 1e-007 1 1 0
1  47 0 0 0.1
2  121 12 0 0 0.1
2  122 16 0 0 0.1
6  172 18 0
6  173 25 0
6  174 20 12
6  175 26 12
0

0101000
-114 0 +184 0 *
Wi

0101100
-115 10 -113 10 +182 10 +112 10 *
Fa
0  1e-007 12 10
2  20
0101000
+111 0 *
Ve
1e-007
3 0 0.1
0 0

0101101
*
Ed
 1e-007 1 1 0
1  48 0 0 0.1
2  123 15 0 0 0.1
2  124 14 0 0 0.1
6  176 23 0
6  177 21 0
6  178 22 12
6  179 24 12
0

0101000
-109 0 +181 0 *
Ed
 1e-007 1 1 0
1  49 0 0 3
2  125 14 0 0 3
2  126 38 0 0 3
6  180 21 0
6  181 68 0
6  182 22 12
0

0101000
-109 0 +116 0 *
Wi

0101100
-180 10 -108 10 +115 10 +107 10 *
Fa
0  1e-007 14 10
2  22
0101000
+106 0 *
Ve
1e-007
3 3 0.1
0 0

0101101
*
Ed
 1e-007 1 1 0
1  50 0 0 3
2  127 15 0 0 3
2  128 38 0 0 3
6  183 23 0
6  184 68 0
6  185 24 12
0

0101000
-104 0 +109 0 *
Ed
 1e-007 1 1 0
1  51 0 0 0.1
2  129 15 0 0 0.1
2  130 16 0 0 0.1
6  186 23 0
6  187 25 0
6  188 24 12
6  189 26 12
0

0101000
-104 0 +179 0 *
Wi

0101100
-108 10 -103 10 +178 10 +102 10 *
Fa
0  1e-007 15 10
2  24
0101000
+101 0 *
Ed
 1e-007 1 1 0
1  52 0 0 3
2  131 16 0 0 3
2  132 38 0 0 3
6  190 25 0
6  191 68 0
6  192 26 12
0

0101000
-104 0 +114 0 *
Wi

0101100
-177 10 -102 10 +112 10 +99 10 *
Fa
0  1e-007 16 10
2  26
0101000
+98 0 *
Ve
1e-007
0 0 0.1
0 0

0101101
*
Ed
 1e-007 1 1 0
1  53 0 0 0.1
2  133 17 0 0 0.1
2  134 19 0 0 0.1
6  193 27 0
6  194 30 0
6  195 29 16
6  196 31 16
0

0101000
-96 0 +174 0 *
Ve
1e-007
0 3 0.1
0 0

0101101
*
Ed
 1e-007 1 1 0
1  54 0 0 3
2  135 17 0 0 3
2  136 39 0 0 3
6  197 27 0
6  198 69 0
6  199 29 16
0

0101000
-94 0 +96 0 *
Ed
 1e-007 1 1 0
1  55 0 0 0.1
2  137 17 0 0 0.1
2  138 21 0 0 0.1
6  200 27 0
6  201 34 0
6  202 29 16
6  203 35 16
0

0101000
-94 0 +175 0 *
Wi

0101100
-95 14 -93 14 +173 14 +92 14 *
Fa
0  1e-007 17 14
2  29
0101000
+91 0 *
Ve
1e-007
3 0 0.1
0 0

0101101
*
Ed
 1e-007 1 1 0
1  56 0 0 0.1
2  139 20 0 0 0.1
2  140 19 0 0 0.1
6  204 32 0
6  205 30 0
6  206 31 16
6  207 33 16
0

0101000
-89 0 +172 0 *
Ed
 1e-007 1 1 0
1  57 0 0 3
2  141 19 0 0 3
2  142 39 0 0 3
6  208 30 0
6  209 69 0
6  210 31 16
0

0101000
-89 0 +96 0 *
Wi

0101100
-171 14 -88 14 +95 14 +87 14 *
Fa
0  1e-007 19 14
2  31
0101000
+86 0 *
Ve
1e-007
3 3 0.1
0 0

0101101
*
Ed
 1e-007 1 1 0
1  58 0 0 3
2  143 20 0 0 3
2  144 39 0 0 3
6  211 32 0
6  212 69 0
6  213 33 16
0

0101000
-84 0 +89 0 *
Ed
 1e-007 1 1 0
1  59 0 0 0.1
2  145 20 0 0 0.1
2  146 21 0 0 0.1
6  214 32 0
6  215 34 0
6  216 33 16
6  217 35 16
0

0101000
-84 0 +170 0 *
Wi

0101100
-88 14 -83 14 +169 14 +82 14 *
Fa
0  1e-007 20 14
2  33
0101000
+81 0 *
Ed
 1e-007 1 1 0
1  60 0 0 3
2  147 21 0 0 3
2  148 39 0 0 3
6  218 34 0
6  219 69 0
6  220 35 16
0

0101000
-84 0 +94 0 *
Wi

0101100
-168 14 -82 14 +92 14 +79 14 *
Fa
0  1e-007 21 14
2  35
0101000
+78 0 *
Ve
1e-007
0 0 0.1
0 0

0101101
*
Ed
 1e-007 1 1 0
1  61 0 0 0.1
2  149 22 0 0 0.1
2  150 24 0 0 0.1
6  221 36 21
6  222 40 21
6  223 37 0
6  224 41 0
6  225 39 23
6  226 42 23
0

0101000
-76 0 +165 0 *
Ve
1e-007
0 3 0.1
0 0

0101101
*
Ed
 1e-007 1 1 0
1  62 0 0 3
2  151 22 0 0 3
2  152 40 0 0 3
6  227 36 21
6  228 37 0
6  229 70 0
6  230 39 23
0

0101000
-74 0 +76 0 *
Ed
 1e-007 1 1 0
1  63 0 0 0.1
2  153 22 0 0 0.1
2  154 26 0 0 0.1
6  231 36 21
6  232 46 21
6  233 37 0
6  234 47 0
6  235 39 23
6  236 48 23
0

0101000
-74 0 +166 0 *
Wi

0101100
-75 18 -73 18 +164 18 +72 18 *
Fa
0  1e-007 22 18
2  39
0101000
+71 0 *
Ve
1e-007
3 0 0.1
0 0

0101101
*
Ed
 1e-007 1 1 0
1  64 0 0 0.1
2  155 25 0 0 0.1
2  156 24 0 0 0.1
6  237 40 21
6  238 43 21
6  239 44 0
6  240 41 0
6  241 42 23
6  242 45 23
0

0101000
-69 0 +163 0 *
Ed
 1e-007 1 1 0
1  65 0 0 3
2  157 24 0 0 3
2  158 40 0 0 3
6  243 40 21
6  244 41 0
6  245 70 0
6  246 42 23
0

0101000
-69 0 +76 0 *
Wi

0101100
-162 18 -68 18 +75 18 +67 18 *
Fa
0  1e-007 24 18
2  42
0101000
+66 0 *
Ve
1e-007
3 3 0.1
0 0

0101101
*
Ed
 1e-007 1 1 0
1  66 0 0 3
2  159 25 0 0 3
2  160 40 0 0 3
6  247 43 21
6  248 44 0
6  249 70 0
6  250 45 23
0

0101000
-64 0 +69 0 *
Ed
 1e-007 1 1 0
1  67 0 0 0.1
2  161 25 0 0 0.1
2  162 26 0 0 0.1
6  251 43 21
6  252 46 21
6  253 44 0
6  254 47 0
6  255 45 23
6  256 48 23
0

0101000
-64 0 +161 0 *
Wi

0101100
-68 18 -63 18 +160 18 +62 18 *
Fa
0  1e-007 25 18
2  45
0101000
+61 0 *
Ed
 1e-007 1 1 0
1  68 0 0 3
2  163 26 0 0 3
2  164 40 0 0 3
6  257 46 21
6  258 47 0
6  259 70 0
6  260 48 23
0

0101000
-64 0 +74 0 *
Wi

0101100
-159 18 -62 18 +72 18 +59 18 *
Fa
0  1e-007 26 18
2  48
0101000
+58 0 *
Ve
1e-007
0 0 0.1
0 0

0101101
*
Ed
 1e-007 1 1 0
1  69 0 0 0.1
2  165 27 0 0 0.1
2  166 29 0 0 0.1
6  261 49 0
6  262 52 0
6  263 51 27
6  264 53 27
0

0101000
-56 0 +156 0 *
Ve
1e-007
0 3 0.1
0 0

0101101
*
Ed
 1e-007 1 1 0
1  70 0 0 3
2  167 27 0 0 3
2  168 41 0 0 3
6  265 49 0
6  266 71 0
6  267 51 27
0

0101000
-54 0 +56 0 *
Ed
 1e-007 1 1 0
1  71 0 0 0.1
2  169 27 0 0 0.1
2  170 31 0 0 0.1
6  268 49 0
6  269 56 0
6  270 51 27
6  271 57 27
0

0101000
-54 0 +157 0 *
Wi

0101100
-55 25 -53 25 +155 25 +52 25 *
Fa
0  1e-007 27 25
2  51
0101000
+51 0 *
Ve
1e-007
3 0 0.1
0 0

0101101
*
Ed
 1e-007 1 1 0
1  72 0 0 0.1
2  171 30 0 0 0.1
2  172 29 0 0 0.1
6  272 54 0
6  273 52 0
6  274 53 27
6  275 55 27
0

0101000
-49 0 +154 0 *
Ed
 1e-007 1 1 0
1  73 0 0 3
2  173 29 0 0 3
2  174 41 0 0 3
6  276 52 0
6  277 71 0
6  278 53 27
0

0101000
-49 0 +56 0 *
Wi

0101100
-153 25 -48 25 +55 25 +47 25 *
Fa
0  1e-007 29 25
2  53
0101000
+46 0 *
Ve
1e-007
3 3 0.1
0 0

0101101
*
Ed
 1e-007 1 1 0
1  74 0 0 3
2  175 30 0 0 3
2  176 41 0 0 3
6  279 54 0
6  280 71 0
6  281 55 27
0

0101000
-44 0 +49 0 *
Ed
 1e-007 1 1 0
1  75 0 0 0.1
2  177 30 0 0 0.1
2  178 31 0 0 0.1
6  282 54 0
6  283 56 0
6  284 55 27
6  285 57 27
0

0101000
-44 0 +152 0 *
Wi

0101100
-48 25 -43 25 +151 25 +42 25 *
Fa
0  1e-007 30 25
2  55
0101000
+41 0 *
Ed
 1e-007 1 1 0
1  76 0 0 3
2  179 31 0 0 3
2  180 41 0 0 3
6  286 56 0
6  287 71 0
6  288 57 27
0

0101000
-44 0 +54 0 *
Wi

0101100
-150 25 -42 25 +52 25 +39 25 *
Fa
0  1e-007 31 25
2  57
0101000
+38 0 *
Ve
1e-007
0 0 0.1
0 0

0101101
*
Ed
 1e-007 1 1 0
1  77 0 0 0.1
2  181 32 0 0 0.1
2  182 34 0 0 0.1
6  289 58 0
6  290 61 0
6  291 60 31
6  292 62 31
0

0101000
-36 0 +147 0 *
Ve
1e-007
0 3 0.1
0 0

0101101
*
Ed
 1e-007 1 1 0
1  78 0 0 3
2  183 32 0 0 3
2  184 42 0 0 3
6  293 58 0
6  294 72 0
6  295 60 31
0

0101000
-34 0 +36 0 *
Ed
 1e-007 1 1 0
1  79 0 0 0.1
2  185 32 0 0 0.1
2  186 36 0 0 0.1
6  296 58 0
6  297 65 0
6  298 60 31
6  299 66 31
0

0101000
-34 0 +148 0 *
Wi

0101100
-35 29 -33 29 +146 29 +32 29 *
Fa
0  1e-007 32 29
2  60
0101000
+31 0 *
Ve
1e-007
3 0 0.1
0 0

0101101
*
Ed
 1e-007 1 1 0
1  80 0 0 0.1
2  187 35 0 0 0.1
2  188 34 0 0 0.1
6  300 63 0
6  301 61 0
6  302 62 31
6  303 64 31
0

0101000
-29 0 +145 0 *
Ed
 1e-007 1 1 0
1  81 0 0 3
2  189 34 0 0 3
2  190 42 0 0 3
6  304 61 0
6  305 72 0
6  306 62 31
0

0101000
-29 0 +36 0 *
Wi

0101100
-144 29 -28 29 +35 29 +27 29 *
Fa
0  1e-007 34 29
2  62
0101000
+26 0 *
Ve
1e-007
3 3 0.1
0 0

0101101
*
Ed
 1e-007 1 1 0
1  82 0 0 3
2  191 35 0 0 3
2  192 42 0 0 3
6  307 63 0
6  308 72 0
6  309 64 31
0

0101000
-24 0 +29 0 *
Ed
 1e-007 1 1 0
1  83 0 0 0.1
2  193 35 0 0 0.1
2  194 36 0 0 0.1
6  310 63 0
6  311 65 0
6  312 64 31
6  313 66 31
0

0101000
-24 0 +143 0 *
Wi

0101100
-28 29 -23 29 +142 29 +22 29 *
Fa
0  1e-007 35 29
2  64
0101000
+21 0 *
Ed
 1e-007 1 1 0
1  84 0 0 3
2  195 36 0 0 3
2  196 42 0 0 3
6  314 65 0
6  315 72 0
6  316 66 31
0

0101000
-24 0 +34 0 *
Wi

0101100
-141 29 -22 29 +32 29 +19 29 *
Fa
0  1e-007 36 29
2  66
0101000
+18 0 *
Wi

0101100
-133 0 -119 0 +123 0 +127 0 *
Fa
0  1e-007 37 0
2  67
0111000
+16 0 *
Wi

0101100
-113 0 -99 0 +103 0 +107 0 *
Fa
0  1e-007 38 0
2  68
0111000
+14 0 *
Wi

0101100
-93 0 -79 0 +83 0 +87 0 *
Fa
0  1e-007 39 0
2  69
0111000
+12 0 *
Wi

0101100
-73 0 -59 0 +63 0 +67 0 *
Fa
0  1e-007 40 0
2  70
0111000
+10 0 *
Wi

0101100
-53 0 -39 0 +43 0 +47 0 *
Fa
0  1e-007 41 0
2  71
0111000
+8 0 *
Wi

0101100
-33 0 -19 0 +23 0 +27 0 *
Fa
0  1e-007 42 0
2  72
0111000
+6 0 *
Sh

0101100
-213 2 -206 2 +201 2 +196 2 -139 0 +137 2 +130 0 +125 0 -120 0 -117 0 
+110 0 +105 0 -100 0 -97 0 +90 0 +85 0 -80 0 -77 0 +70 0 +65 0 
-60 0 -57 0 +50 0 +45 0 -40 0 -37 0 +30 0 +25 0 -20 0 -17 0 
-15 6 -13 10 -11 14 -9 18 -7 25 -5 29 *
So

0100000
+4 0 *
Co

0100000
+3 0 *
Co

1100000
+2 1 *

+1 0 