DBRep_DrawableShape

CASCADE Topology V1, (c) Matra-Datavision
Locations 37
1
              1               0               0               0 
              0               1               0               0 
              0               0               1               0 
1
              1               0               0               0 
              0               1               0               0 
              0               0               1               0 
2  2 -1 0
1
              1               0               0             260 
              0               1               0           237.5 
              0               0               1               0 
1
              1               0               0               0 
              0               1               0               0 
              0               0               1               0 
2  4 1 5 1 0
1
              1               0               0               0 
              0               1               0               0 
              0               0               1               0 
2  2 1 7 -1 4 -1 0
2  2 1 5 -1 4 -1 0
2  5 -1 4 -1 0
1
              1               0               0             205 
              0               1               0           237.5 
              0               0               1               0 
2  11 1 5 1 0
2  2 1 7 -1 11 -1 0
2  2 1 5 -1 11 -1 0
2  5 -1 11 -1 0
1
              1               0               0             205 
              0               1               0             280 
              0               0               1               0 
2  16 1 5 1 0
2  2 1 7 -1 16 -1 0
2  2 1 5 -1 16 -1 0
2  5 -1 16 -1 0
1
              1               0               0             260 
              0               1               0             280 
              0               0               1               0 
2  21 1 5 1 0
2  2 1 7 -1 21 -1 0
2  2 1 5 -1 21 -1 0
2  5 -1 21 -1 0
1
              1               0               0             205 
              0               1               0             195 
              0               0               1               0 
2  26 1 5 1 0
2  2 1 26 -1 0
2  26 -1 0
2  2 1 7 -1 26 -1 0
2  2 1 5 -1 26 -1 0
2  5 -1 26 -1 0
1
              1               0               0             260 
              0               1               0             195 
              0               0               1               0 
2  33 1 5 1 0
2  2 1 7 -1 33 -1 0
2  2 1 5 -1 33 -1 0
2  5 -1 33 -1 0
Curve2ds 220
1 0 0 1 0 
1 0 0 1 0 
1 500 0 0 -1 
1 0 0 0 1 
1 0 -500 1 0 
1 0 0 1 0 
1 0 0 0 -1 
1 0 0 0 1 
1 0 0 0 1 
1 0 0 1 0 
1 0 0 1 0 
1 0 500 1 0 
1 500 0 0 1 
1 0 0 1 0 
1 500 0 0 1 
1 0 500 1 0 
1 500 0 0 -1 
1 500 0 0 1 
1 0 0 0 1 
1 0 500 1 0 
1 0 -500 1 0 
1 0 500 1 0 
1 0 0 0 -1 
1 500 0 0 1 
1 0 0 0 -1 
1 0 0 0 1 
1 260 237.5 0 1 
1 260 237.5 0 1 
1 0 0 0 1 
1 0 0 1 0 
1 260 237.5 1 0 
1 260 237.5 1 0 
1 0 0 0 -1 
1 30 0 0 1 
1 290 237.5 0 1 
1 290 237.5 0 1 
1 0 0 0 1 
1 0 30 1 0 
1 260 267.5 1 0 
1 260 267.5 1 0 
1 0 0 0 -1 
1 0 0 0 1 
1 205 237.5 0 1 
1 205 237.5 0 1 
1 0 0 0 1 
1 0 0 1 0 
1 205 237.5 1 0 
1 205 237.5 1 0 
1 0 0 0 -1 
1 30 0 0 1 
1 235 237.5 0 1 
1 235 237.5 0 1 
1 0 0 0 1 
1 0 30 1 0 
1 205 267.5 1 0 
1 205 267.5 1 0 
1 0 0 0 -1 
1 0 0 0 1 
1 205 280 0 1 
1 205 280 0 1 
1 0 0 0 1 
1 0 0 1 0 
1 205 280 1 0 
1 205 280 1 0 
1 0 0 0 -1 
1 30 0 0 1 
1 235 280 0 1 
1 235 280 0 1 
1 0 0 0 1 
1 0 30 1 0 
1 205 310 1 0 
1 205 310 1 0 
1 0 0 0 -1 
1 0 0 0 1 
1 260 280 0 1 
1 260 280 0 1 
1 0 0 0 1 
1 0 0 1 0 
1 260 280 1 0 
1 260 280 1 0 
1 0 0 0 -1 
1 30 0 0 1 
1 290 280 0 1 
1 290 280 0 1 
1 0 0 0 1 
1 0 30 1 0 
1 260 310 1 0 
1 260 310 1 0 
1 0 0 0 -1 
1 0 0 0 1 
1 205 195 0 1 
1 205 195 0 1 
1 205 195 0 1 
1 0 0 0 1 
1 0 0 1 0 
1 205 195 1 0 
1 205 195 1 0 
1 205 195 1 0 
1 0 0 0 -1 
1 30 0 0 1 
1 235 195 0 1 
1 235 195 0 1 
1 235 195 0 1 
1 0 0 0 1 
1 0 30 1 0 
1 205 225 1 0 
1 205 225 1 0 
1 205 225 1 0 
1 0 0 0 -1 
1 0 0 0 1 
1 260 195 0 1 
1 260 195 0 1 
1 0 0 0 1 
1 0 0 1 0 
1 260 195 1 0 
1 260 195 1 0 
1 0 0 0 -1 
1 30 0 0 1 
1 290 195 0 1 
1 290 195 0 1 
1 0 0 0 1 
1 0 30 1 0 
1 260 225 1 0 
1 260 225 1 0 
1 0 0 1 0 
1 0 0 1 0 
1 1 0 0 -1 
1 0 0 0 1 
1 0 -30 1 0 
1 0 0 1 0 
1 0 0 1 0 
1 0 30 1 0 
1 1 0 0 1 
1 0 0 1 0 
1 1 0 0 -1 
1 30 0 0 1 
1 0 -30 1 0 
1 0 30 1 0 
1 1 0 0 1 
1 0 30 1 0 
1 0 0 1 0 
1 0 0 1 0 
1 1 0 0 -1 
1 0 0 0 1 
1 0 -30 1 0 
1 0 0 1 0 
1 0 0 1 0 
1 0 30 1 0 
1 1 0 0 1 
1 0 0 1 0 
1 1 0 0 -1 
1 30 0 0 1 
1 0 -30 1 0 
1 0 30 1 0 
1 1 0 0 1 
1 0 30 1 0 
1 0 0 1 0 
1 0 0 1 0 
1 1 0 0 -1 
1 0 0 0 1 
1 0 -30 1 0 
1 0 0 1 0 
1 0 0 1 0 
1 0 30 1 0 
1 1 0 0 1 
1 0 0 1 0 
1 1 0 0 -1 
1 30 0 0 1 
1 0 -30 1 0 
1 0 30 1 0 
1 1 0 0 1 
1 0 30 1 0 
1 0 0 1 0 
1 0 0 1 0 
1 1 0 0 -1 
1 0 0 0 1 
1 0 -30 1 0 
1 0 0 1 0 
1 0 0 1 0 
1 0 30 1 0 
1 1 0 0 1 
1 0 0 1 0 
1 1 0 0 -1 
1 30 0 0 1 
1 0 -30 1 0 
1 0 30 1 0 
1 1 0 0 1 
1 0 30 1 0 
1 0 0 1 0 
1 0 0 1 0 
1 1 0 0 -1 
1 0 0 0 1 
1 0 -30 1 0 
1 0 0 1 0 
1 0 0 1 0 
1 0 30 1 0 
1 1 0 0 1 
1 0 0 1 0 
1 1 0 0 -1 
1 30 0 0 1 
1 0 -30 1 0 
1 0 30 1 0 
1 1 0 0 1 
1 0 30 1 0 
1 0 0 1 0 
1 0 0 1 0 
1 1 0 0 -1 
1 0 0 0 1 
1 0 -30 1 0 
1 0 0 1 0 
1 0 0 1 0 
1 0 30 1 0 
1 1 0 0 1 
1 0 0 1 0 
1 1 0 0 -1 
1 30 0 0 1 
1 0 -30 1 0 
1 0 30 1 0 
1 1 0 0 1 
1 0 30 1 0 
Curves 84
1 0 0 0 0 0 1 
1 0 0 500 -0 1 0 
1 0 500 0 0 0 1 
1 0 0 0 -0 1 0 
1 0 0 0 1 0 -0 
1 500 0 0 0 0 1 
1 0 0 500 1 0 -0 
1 0 500 500 1 0 -0 
1 500 0 500 -0 1 0 
1 0 500 0 1 0 -0 
1 500 500 0 0 0 1 
1 500 0 0 -0 1 0 
1 0 0 0 -0 1 0 
1 0 0 0 1 0 -0 
1 30 0 0 -0 1 0 
1 0 30 0 1 0 -0 
1 0 0 0 -0 1 0 
1 0 0 0 1 0 -0 
1 30 0 0 -0 1 0 
1 0 30 0 1 0 -0 
1 0 0 0 -0 1 0 
1 0 0 0 1 0 -0 
1 30 0 0 -0 1 0 
1 0 30 0 1 0 -0 
1 0 0 0 -0 1 0 
1 0 0 0 1 0 -0 
1 30 0 0 -0 1 0 
1 0 30 0 1 0 -0 
1 0 0 0 -0 1 0 
1 0 0 0 1 0 -0 
1 30 0 0 -0 1 0 
1 0 30 0 1 0 -0 
1 0 0 0 -0 1 0 
1 0 0 0 1 0 -0 
1 30 0 0 -0 1 0 
1 0 30 0 1 0 -0 
1 0 0 0 0 0 1 
1 0 0 1 -0 1 0 
1 0 30 0 0 0 1 
1 30 0 0 0 0 1 
1 0 0 1 1 0 -0 
1 30 0 1 -0 1 0 
1 30 30 0 0 0 1 
1 0 30 1 1 0 -0 
1 0 0 0 0 0 1 
1 0 0 1 -0 1 0 
1 0 30 0 0 0 1 
1 30 0 0 0 0 1 
1 0 0 1 1 0 -0 
1 30 0 1 -0 1 0 
1 30 30 0 0 0 1 
1 0 30 1 1 0 -0 
1 0 0 0 0 0 1 
1 0 0 1 -0 1 0 
1 0 30 0 0 0 1 
1 30 0 0 0 0 1 
1 0 0 1 1 0 -0 
1 30 0 1 -0 1 0 
1 30 30 0 0 0 1 
1 0 30 1 1 0 -0 
1 0 0 0 0 0 1 
1 0 0 1 -0 1 0 
1 0 30 0 0 0 1 
1 30 0 0 0 0 1 
1 0 0 1 1 0 -0 
1 30 0 1 -0 1 0 
1 30 30 0 0 0 1 
1 0 30 1 1 0 -0 
1 0 0 0 0 0 1 
1 0 0 1 -0 1 0 
1 0 30 0 0 0 1 
1 30 0 0 0 0 1 
1 0 0 1 1 0 -0 
1 30 0 1 -0 1 0 
1 30 30 0 0 0 1 
1 0 30 1 1 0 -0 
1 0 0 0 0 0 1 
1 0 0 1 -0 1 0 
1 0 30 0 0 0 1 
1 30 0 0 0 0 1 
1 0 0 1 1 0 -0 
1 30 0 1 -0 1 0 
1 30 30 0 0 0 1 
1 0 30 1 1 0 -0 
Polygon3D 0
PolygonOnTriangulations 336
2 1 2 
p 1.00000001490116 1 0 500 
2 1 4 
p 1.00000001490116 1 0 500 
2 2 3 
p 1.00000001490116 1 0 500 
2 1 2 
p 1.00000001490116 1 0 500 
2 4 3 
p 1.00000001490116 1 0 500 
2 1 4 
p 1.00000001490116 1 0 500 
2 1 4 
p 1.00000001490116 1 0 500 
2 1 2 
p 1.00000001490116 1 0 500 
2 1 2 
p 1.00000001490116 1 0 500 
2 1 2 
p 1.00000001490116 1 0 500 
2 1 2 
p 1.00000001490116 1 0 500 
2 1 4 
p 1.00000001490116 1 0 500 
2 1 4 
p 1.00000001490116 1 0 500 
2 1 4 
p 1.00000001490116 1 0 500 
2 1 2 
p 1.00000001490116 1 0 500 
2 2 3 
p 1.00000001490116 1 0 500 
2 4 3 
p 1.00000001490116 1 0 500 
2 1 4 
p 1.00000001490116 1 0 500 
2 4 3 
p 1.00000001490116 1 0 500 
2 2 3 
p 1.00000001490116 1 0 500 
2 2 3 
p 1.00000001490116 1 0 500 
2 4 3 
p 1.00000001490116 1 0 500 
2 1 2 
p 1.00000001490116 1 0 500 
2 2 3 
p 1.00000001490116 1 0 500 
2 2 3 
p 1.00000001490116 1 0 500 
2 2 3 
p 1.00000001490116 1 0 500 
2 4 3 
p 1.00000001490116 1 0 500 
2 2 3 
p 1.00000001490116 1 0 500 
2 1 4 
p 1.00000001490116 1 0 500 
2 4 3 
p 1.00000001490116 1 0 500 
2 4 3 
p 1.00000001490116 1 0 500 
2 4 3 
p 1.00000001490116 1 0 500 
2 1 4 
p 0.0406666672726 1 0 30 
2 1 2 
p 0.0406666672726 1 0 30 
2 5 6 
p 1.00000001490116 1 0 30 
2 1 4 
p 1.00000001490116 1 0 30 
2 1 2 
p 0.0406666672726 1 0 30 
2 1 4 
p 0.0406666672726 1 0 30 
2 5 7 
p 1.00000001490116 1 0 30 
2 1 2 
p 1.00000001490116 1 0 30 
2 1 4 
p 0.0406666672726 1 0 30 
2 4 3 
p 0.0406666672726 1 0 30 
2 7 8 
p 1.00000001490116 1 0 30 
2 1 4 
p 1.00000001490116 1 0 30 
2 1 2 
p 0.0406666672726 1 0 30 
2 2 3 
p 0.0406666672726 1 0 30 
2 6 8 
p 1.00000001490116 1 0 30 
2 1 2 
p 1.00000001490116 1 0 30 
2 1 4 
p 0.0406666672726 1 0 30 
2 1 2 
p 0.0406666672726 1 0 30 
2 9 10 
p 1.00000001490116 1 0 30 
2 1 4 
p 1.00000001490116 1 0 30 
2 1 2 
p 0.0406666672726 1 0 30 
2 1 4 
p 0.0406666672726 1 0 30 
2 9 11 
p 1.00000001490116 1 0 30 
2 1 2 
p 1.00000001490116 1 0 30 
2 1 4 
p 0.0406666672726 1 0 30 
2 4 3 
p 0.0406666672726 1 0 30 
2 11 12 
p 1.00000001490116 1 0 30 
2 1 4 
p 1.00000001490116 1 0 30 
2 1 2 
p 0.0406666672726 1 0 30 
2 2 3 
p 0.0406666672726 1 0 30 
2 10 12 
p 1.00000001490116 1 0 30 
2 1 2 
p 1.00000001490116 1 0 30 
2 1 4 
p 0.0406666672726 1 0 30 
2 1 2 
p 0.0406666672726 1 0 30 
2 13 14 
p 1.00000001490116 1 0 30 
2 1 4 
p 1.00000001490116 1 0 30 
2 1 2 
p 0.0406666672726 1 0 30 
2 1 4 
p 0.0406666672726 1 0 30 
2 13 15 
p 1.00000001490116 1 0 30 
2 1 2 
p 1.00000001490116 1 0 30 
2 1 4 
p 0.0406666672726 1 0 30 
2 4 3 
p 0.0406666672726 1 0 30 
2 15 16 
p 1.00000001490116 1 0 30 
2 1 4 
p 1.00000001490116 1 0 30 
2 1 2 
p 0.0406666672726 1 0 30 
2 2 3 
p 0.0406666672726 1 0 30 
2 14 16 
p 1.00000001490116 1 0 30 
2 1 2 
p 1.00000001490116 1 0 30 
2 1 4 
p 0.0406666672726 1 0 30 
2 1 2 
p 0.0406666672726 1 0 30 
2 17 18 
p 1.00000001490116 1 0 30 
2 1 4 
p 1.00000001490116 1 0 30 
2 1 2 
p 0.0406666672726 1 0 30 
2 1 4 
p 0.0406666672726 1 0 30 
2 17 19 
p 1.00000001490116 1 0 30 
2 1 2 
p 1.00000001490116 1 0 30 
2 1 4 
p 0.0406666672726 1 0 30 
2 4 3 
p 0.0406666672726 1 0 30 
2 19 20 
p 1.00000001490116 1 0 30 
2 1 4 
p 1.00000001490116 1 0 30 
2 1 2 
p 0.0406666672726 1 0 30 
2 2 3 
p 0.0406666672726 1 0 30 
2 18 20 
p 1.00000001490116 1 0 30 
2 1 2 
p 1.00000001490116 1 0 30 
2 1 4 
p 0.0406666672726472 1 0 30 
2 1 2 
p 0.0406666672726472 1 0 30 
2 1 4 
p 0.0406666672726472 1 0 30 
2 4 1 
p 0.0406666672726472 1 0 30 
2 5 6 
p 1.00000001490116 1 0 30 
2 1 4 
p 1.00000001490116 1 0 30 
2 21 22 
p 1.00000001490116 1 0 30 
2 1 4 
p 1.00000001490116 1 0 30 
2 1 2 
p 0.0406666672726472 1 0 30 
2 1 4 
p 0.0406666672726472 1 0 30 
2 1 2 
p 0.0406666672726472 1 0 30 
2 4 3 
p 0.0406666672726472 1 0 30 
2 5 7 
p 1.00000001490116 1 0 30 
2 1 2 
p 1.00000001490116 1 0 30 
2 21 23 
p 1.00000001490116 1 0 30 
2 1 2 
p 1.00000001490116 1 0 30 
2 1 4 
p 0.0406666672726472 1 0 30 
2 4 3 
p 0.0406666672726472 1 0 30 
2 3 2 
p 0.0406666672726472 1 0 30 
2 1 4 
p 0.0406666672726472 1 0 30 
2 7 8 
p 1.00000001490116 1 0 30 
2 1 4 
p 1.00000001490116 1 0 30 
2 23 24 
p 1.00000001490116 1 0 30 
2 1 4 
p 1.00000001490116 1 0 30 
2 1 2 
p 0.0406666672726472 1 0 30 
2 2 3 
p 0.0406666672726472 1 0 30 
2 1 2 
p 0.0406666672726472 1 0 30 
2 1 2 
p 0.0406666672726472 1 0 30 
2 6 8 
p 1.00000001490116 1 0 30 
2 1 2 
p 1.00000001490116 1 0 30 
2 22 24 
p 1.00000001490116 1 0 30 
2 1 2 
p 1.00000001490116 1 0 30 
2 1 4 
p 0.0406666672726 1 0 30 
2 1 2 
p 0.0406666672726 1 0 30 
2 25 26 
p 1.00000001490116 1 0 30 
2 1 4 
p 1.00000001490116 1 0 30 
2 1 2 
p 0.0406666672726 1 0 30 
2 1 4 
p 0.0406666672726 1 0 30 
2 25 27 
p 1.00000001490116 1 0 30 
2 1 2 
p 1.00000001490116 1 0 30 
2 1 4 
p 0.0406666672726 1 0 30 
2 4 3 
p 0.0406666672726 1 0 30 
2 27 28 
p 1.00000001490116 1 0 30 
2 1 4 
p 1.00000001490116 1 0 30 
2 1 2 
p 0.0406666672726 1 0 30 
2 2 3 
p 0.0406666672726 1 0 30 
2 26 28 
p 1.00000001490116 1 0 30 
2 1 2 
p 1.00000001490116 1 0 30 
2 1 2 
p 0.0406666672726 1 0 1 
2 1 4 
p 0.0406666672726 1 0 1 
2 1 2 
p 1.00000001490116 1 0 1 
2 1 4 
p 1.00000001490116 1 0 1 
2 2 3 
p 0.0406666672726 1 0 30 
2 1 2 
p 0.0406666672726 1 0 30 
2 2 3 
p 1.00000001490116 1 0 30 
2 4 3 
p 0.0406666672726 1 0 1 
2 1 4 
p 0.0406666672726 1 0 1 
2 4 3 
p 1.00000001490116 1 0 1 
2 1 4 
p 1.00000001490116 1 0 1 
2 1 2 
p 0.0406666672726 1 0 1 
2 2 3 
p 0.0406666672726 1 0 1 
2 2 3 
p 1.00000001490116 1 0 1 
2 1 2 
p 1.00000001490116 1 0 1 
2 4 3 
p 0.0406666672726 1 0 30 
2 1 4 
p 0.0406666672726 1 0 30 
2 4 3 
p 1.00000001490116 1 0 30 
2 2 3 
p 0.0406666672726 1 0 30 
2 4 3 
p 0.0406666672726 1 0 30 
2 2 3 
p 1.00000001490116 1 0 30 
2 4 3 
p 0.0406666672726 1 0 1 
2 2 3 
p 0.0406666672726 1 0 1 
2 4 3 
p 1.00000001490116 1 0 1 
2 2 3 
p 1.00000001490116 1 0 1 
2 4 3 
p 0.0406666672726 1 0 30 
2 2 3 
p 0.0406666672726 1 0 30 
2 4 3 
p 1.00000001490116 1 0 30 
2 1 2 
p 0.0406666672726 1 0 1 
2 1 4 
p 0.0406666672726 1 0 1 
2 1 2 
p 1.00000001490116 1 0 1 
2 1 4 
p 1.00000001490116 1 0 1 
2 2 3 
p 0.0406666672726 1 0 30 
2 1 2 
p 0.0406666672726 1 0 30 
2 2 3 
p 1.00000001490116 1 0 30 
2 4 3 
p 0.0406666672726 1 0 1 
2 1 4 
p 0.0406666672726 1 0 1 
2 4 3 
p 1.00000001490116 1 0 1 
2 1 4 
p 1.00000001490116 1 0 1 
2 1 2 
p 0.0406666672726 1 0 1 
2 2 3 
p 0.0406666672726 1 0 1 
2 2 3 
p 1.00000001490116 1 0 1 
2 1 2 
p 1.00000001490116 1 0 1 
2 4 3 
p 0.0406666672726 1 0 30 
2 1 4 
p 0.0406666672726 1 0 30 
2 4 3 
p 1.00000001490116 1 0 30 
2 2 3 
p 0.0406666672726 1 0 30 
2 4 3 
p 0.0406666672726 1 0 30 
2 2 3 
p 1.00000001490116 1 0 30 
2 4 3 
p 0.0406666672726 1 0 1 
2 2 3 
p 0.0406666672726 1 0 1 
2 4 3 
p 1.00000001490116 1 0 1 
2 2 3 
p 1.00000001490116 1 0 1 
2 4 3 
p 0.0406666672726 1 0 30 
2 2 3 
p 0.0406666672726 1 0 30 
2 4 3 
p 1.00000001490116 1 0 30 
2 1 2 
p 0.0406666672726 1 0 1 
2 1 4 
p 0.0406666672726 1 0 1 
2 1 2 
p 1.00000001490116 1 0 1 
2 1 4 
p 1.00000001490116 1 0 1 
2 2 3 
p 0.0406666672726 1 0 30 
2 1 2 
p 0.0406666672726 1 0 30 
2 2 3 
p 1.00000001490116 1 0 30 
2 4 3 
p 0.0406666672726 1 0 1 
2 1 4 
p 0.0406666672726 1 0 1 
2 4 3 
p 1.00000001490116 1 0 1 
2 1 4 
p 1.00000001490116 1 0 1 
2 1 2 
p 0.0406666672726 1 0 1 
2 2 3 
p 0.0406666672726 1 0 1 
2 2 3 
p 1.00000001490116 1 0 1 
2 1 2 
p 1.00000001490116 1 0 1 
2 4 3 
p 0.0406666672726 1 0 30 
2 1 4 
p 0.0406666672726 1 0 30 
2 4 3 
p 1.00000001490116 1 0 30 
2 2 3 
p 0.0406666672726 1 0 30 
2 4 3 
p 0.0406666672726 1 0 30 
2 2 3 
p 1.00000001490116 1 0 30 
2 4 3 
p 0.0406666672726 1 0 1 
2 2 3 
p 0.0406666672726 1 0 1 
2 4 3 
p 1.00000001490116 1 0 1 
2 2 3 
p 1.00000001490116 1 0 1 
2 4 3 
p 0.0406666672726 1 0 30 
2 2 3 
p 0.0406666672726 1 0 30 
2 4 3 
p 1.00000001490116 1 0 30 
2 1 2 
p 0.0406666672726 1 0 1 
2 1 4 
p 0.0406666672726 1 0 1 
2 1 2 
p 1.00000001490116 1 0 1 
2 1 4 
p 1.00000001490116 1 0 1 
2 2 3 
p 0.0406666672726 1 0 30 
2 1 2 
p 0.0406666672726 1 0 30 
2 2 3 
p 1.00000001490116 1 0 30 
2 4 3 
p 0.0406666672726 1 0 1 
2 1 4 
p 0.0406666672726 1 0 1 
2 4 3 
p 1.00000001490116 1 0 1 
2 1 4 
p 1.00000001490116 1 0 1 
2 1 2 
p 0.0406666672726 1 0 1 
2 2 3 
p 0.0406666672726 1 0 1 
2 2 3 
p 1.00000001490116 1 0 1 
2 1 2 
p 1.00000001490116 1 0 1 
2 4 3 
p 0.0406666672726 1 0 30 
2 1 4 
p 0.0406666672726 1 0 30 
2 4 3 
p 1.00000001490116 1 0 30 
2 2 3 
p 0.0406666672726 1 0 30 
2 4 3 
p 0.0406666672726 1 0 30 
2 2 3 
p 1.00000001490116 1 0 30 
2 4 3 
p 0.0406666672726 1 0 1 
2 2 3 
p 0.0406666672726 1 0 1 
2 4 3 
p 1.00000001490116 1 0 1 
2 2 3 
p 1.00000001490116 1 0 1 
2 4 3 
p 0.0406666672726 1 0 30 
2 2 3 
p 0.0406666672726 1 0 30 
2 4 3 
p 1.00000001490116 1 0 30 
2 1 2 
p 0.0406666672726472 1 0 1 
2 1 4 
p 0.0406666672726472 1 0 1 
2 1 2 
p 0.0406666672726472 1 0 1 
2 1 4 
p 0.0406666672726472 1 0 1 
2 1 2 
p 1.00000001490116 1 0 1 
2 1 4 
p 1.00000001490116 1 0 1 
2 1 2 
p 1.00000001490116 1 0 1 
2 1 4 
p 1.00000001490116 1 0 1 
2 2 3 
p 0.0406666672726472 1 0 30 
2 1 2 
p 0.0406666672726472 1 0 30 
2 2 3 
p 0.0406666672726472 1 0 30 
2 2 3 
p 1.00000001490116 1 0 30 
2 2 3 
p 1.00000001490116 1 0 30 
2 4 3 
p 0.0406666672726472 1 0 1 
2 1 4 
p 0.0406666672726472 1 0 1 
2 4 3 
p 0.0406666672726472 1 0 1 
2 1 4 
p 0.0406666672726472 1 0 1 
2 4 3 
p 1.00000001490116 1 0 1 
2 1 4 
p 1.00000001490116 1 0 1 
2 4 3 
p 1.00000001490116 1 0 1 
2 1 4 
p 1.00000001490116 1 0 1 
2 1 2 
p 0.0406666672726472 1 0 1 
2 2 3 
p 0.0406666672726472 1 0 1 
2 2 3 
p 0.0406666672726472 1 0 1 
2 1 2 
p 0.0406666672726472 1 0 1 
2 2 3 
p 1.00000001490116 1 0 1 
2 1 2 
p 1.00000001490116 1 0 1 
2 2 3 
p 1.00000001490116 1 0 1 
2 1 2 
p 1.00000001490116 1 0 1 
2 4 3 
p 0.0406666672726472 1 0 30 
2 1 4 
p 0.0406666672726472 1 0 30 
2 4 3 
p 0.0406666672726472 1 0 30 
2 4 3 
p 1.00000001490116 1 0 30 
2 4 3 
p 1.00000001490116 1 0 30 
2 2 3 
p 0.0406666672726472 1 0 30 
2 4 3 
p 0.0406666672726472 1 0 30 
2 2 3 
p 0.0406666672726472 1 0 30 
2 2 3 
p 1.00000001490116 1 0 30 
2 2 3 
p 1.00000001490116 1 0 30 
2 4 3 
p 0.0406666672726472 1 0 1 
2 2 3 
p 0.0406666672726472 1 0 1 
2 2 3 
p 0.0406666672726472 1 0 1 
2 4 3 
p 0.0406666672726472 1 0 1 
2 4 3 
p 1.00000001490116 1 0 1 
2 2 3 
p 1.00000001490116 1 0 1 
2 4 3 
p 1.00000001490116 1 0 1 
2 2 3 
p 1.00000001490116 1 0 1 
2 4 3 
p 0.0406666672726472 1 0 30 
2 2 3 
p 0.0406666672726472 1 0 30 
2 4 3 
p 0.0406666672726472 1 0 30 
2 4 3 
p 1.00000001490116 1 0 30 
2 4 3 
p 1.00000001490116 1 0 30 
2 1 2 
p 0.0406666672726 1 0 1 
2 1 4 
p 0.0406666672726 1 0 1 
2 1 2 
p 1.00000001490116 1 0 1 
2 1 4 
p 1.00000001490116 1 0 1 
2 2 3 
p 0.0406666672726 1 0 30 
2 1 2 
p 0.0406666672726 1 0 30 
2 2 3 
p 1.00000001490116 1 0 30 
2 4 3 
p 0.0406666672726 1 0 1 
2 1 4 
p 0.0406666672726 1 0 1 
2 4 3 
p 1.00000001490116 1 0 1 
2 1 4 
p 1.00000001490116 1 0 1 
2 1 2 
p 0.0406666672726 1 0 1 
2 2 3 
p 0.0406666672726 1 0 1 
2 2 3 
p 1.00000001490116 1 0 1 
2 1 2 
p 1.00000001490116 1 0 1 
2 4 3 
p 0.0406666672726 1 0 30 
2 1 4 
p 0.0406666672726 1 0 30 
2 4 3 
p 1.00000001490116 1 0 30 
2 2 3 
p 0.0406666672726 1 0 30 
2 4 3 
p 0.0406666672726 1 0 30 
2 2 3 
p 1.00000001490116 1 0 30 
2 4 3 
p 0.0406666672726 1 0 1 
2 2 3 
p 0.0406666672726 1 0 1 
2 4 3 
p 1.00000001490116 1 0 1 
2 2 3 
p 1.00000001490116 1 0 1 
2 4 3 
p 0.0406666672726 1 0 30 
2 2 3 
p 0.0406666672726 1 0 30 
2 4 3 
p 1.00000001490116 1 0 30 
Surfaces 42
1 0 0 0 1 0 -0 0 0 1 0 -1 0 
1 0 0 0 -0 1 0 0 0 1 1 0 -0 
1 0 0 500 0 0 1 1 0 -0 -0 1 0 
1 0 500 0 -0 1 0 0 0 1 1 0 -0 
1 0 0 0 0 0 1 1 0 -0 -0 1 0 
1 500 0 0 1 0 -0 0 0 1 0 -1 0 
1 0 0 0 1 0 -0 0 0 1 0 -1 0 
1 0 0 0 0 0 1 1 0 -0 -0 1 0 
1 0 0 0 -0 1 0 0 0 1 1 0 -0 
1 30 0 0 1 0 -0 0 0 1 0 -1 0 
1 0 30 0 -0 1 0 0 0 1 1 0 -0 
1 0 0 0 1 0 -0 0 0 1 0 -1 0 
1 0 0 0 0 0 1 1 0 -0 -0 1 0 
1 0 0 0 -0 1 0 0 0 1 1 0 -0 
1 30 0 0 1 0 -0 0 0 1 0 -1 0 
1 0 30 0 -0 1 0 0 0 1 1 0 -0 
1 0 0 0 1 0 -0 0 0 1 0 -1 0 
1 0 0 0 0 0 1 1 0 -0 -0 1 0 
1 0 0 0 -0 1 0 0 0 1 1 0 -0 
1 30 0 0 1 0 -0 0 0 1 0 -1 0 
1 0 30 0 -0 1 0 0 0 1 1 0 -0 
1 0 0 0 1 0 -0 0 0 1 0 -1 0 
1 0 0 0 0 0 1 1 0 -0 -0 1 0 
1 0 0 0 -0 1 0 0 0 1 1 0 -0 
1 30 0 0 1 0 -0 0 0 1 0 -1 0 
1 0 30 0 -0 1 0 0 0 1 1 0 -0 
1 0 0 0 1 0 -0 0 0 1 0 -1 0 
1 0 0 0 0 0 1 1 0 -0 -0 1 0 
1 0 0 0 -0 1 0 0 0 1 1 0 -0 
1 30 0 0 1 0 -0 0 0 1 0 -1 0 
1 0 30 0 -0 1 0 0 0 1 1 0 -0 
1 0 0 0 1 0 -0 0 0 1 0 -1 0 
1 0 0 0 0 0 1 1 0 -0 -0 1 0 
1 0 0 0 -0 1 0 0 0 1 1 0 -0 
1 30 0 0 1 0 -0 0 0 1 0 -1 0 
1 0 30 0 -0 1 0 0 0 1 1 0 -0 
1 0 0 1 0 0 1 1 0 -0 -0 1 0 
1 0 0 1 0 0 1 1 0 -0 -0 1 0 
1 0 0 1 0 0 1 1 0 -0 -0 1 0 
1 0 0 1 0 0 1 1 0 -0 -0 1 0 
1 0 0 1 0 0 1 1 0 -0 -0 1 0 
1 0 0 1 0 0 1 1 0 -0 -0 1 0 
Triangulations 77
4 2 1 0
0 0 0 0 0 500 0 500 500 0 500 0 0 0 500 0 500 -500 0 -500 2 4 3 2 1 4 
4 2 1 0
0 0 0 500 0 0 500 0 500 0 0 500 0 0 0 500 500 500 500 0 3 2 1 3 1 4 
4 2 1 0
0 0 500 0 500 500 500 500 500 500 0 500 0 0 0 500 500 500 500 0 3 2 1 3 1 4 
4 2 1 0
0 500 0 500 500 0 500 500 500 0 500 500 0 0 0 500 500 500 500 0 3 2 1 3 1 4 
4 2 1 0
0 0 0 0 500 0 500 500 0 500 0 0 0 0 0 500 500 500 500 0 3 2 1 3 1 4 
8 8 1 1.4210854715202e-014
0 0 0 0 500 0 500 500 0 500 0 0 205 195 0 205 225 0 235 195 0 235 225 0 0 0 0 500 500 500 500 0 205 195 205 225 235 195 235 225 6 1 5 7 5 1 2 6 8 2 1 6 4 8 7 4 7 1 3 8 4 3 2 8 
28 38 1 1.4210854715202e-014
0 0 0 0 500 0 500 500 0 500 0 0 260 237.5 0 260 267.5 0 290 237.5 0 290 267.5 0 205 237.5 0 205 267.5 0 235 237.5 0 235 267.5 0 205 280 0 205 310 0 235 280 0 235 310 0 260 280 0 260 310 0 290 280 0 290 310 0 205 195 0 205 225 0 235 195 0 235 225 0 260 195 0 260 225 0 290 195 0 290 225 0 0 0 0 500 500 500 500 0 260 237.5 260 267.5 290 237.5 290 267.5 205 237.5 205 267.5 235 237.5 235 267.5 205 280 205 310 235 280 235 310 260 280 260 310 290 280 290 310 205 195 205 225 235 195 235 225 260 195 260 225 290 195 290 225 22 1 21 23 21 1 9 1 22 25 23 1 24 23 25 11 22 24 11 9 22 26 24 25 5 11 24 5 24 26 4 27 25 4 25 1 2 9 10 2 1 9 2 10 13 12 11 5 14 2 13 28 27 4 15 10 12 15 13 10 6 12 5 7 26 28 7 5 26 7 28 4 17 15 12 17 12 6 16 2 14 16 15 17 18 2 16 18 16 17 19 6 8 19 17 6 3 8 7 3 20 19 3 18 20 3 2 18 3 7 4 3 19 8 
4 2 1 0
500 0 0 500 0 500 500 500 500 500 500 0 0 0 500 0 500 -500 0 -500 2 4 3 2 1 4 
4 2 1 5.55111512312578e-017
0 0 0 0 0 1 0 30 1 0 30 0 0 0 1 0 1 -30 0 -30 2 4 3 2 1 4 
4 2 1 0
0 0 0 0 30 0 30 30 0 30 0 0 0 0 0 30 30 30 30 0 3 2 1 3 1 4 
4 2 1 5.55111512312578e-017
260 237.5 0 260 237.5 1 260 267.5 1 260 267.5 0 0 0 1 0 1 -30 0 -30 2 1 4 2 4 3 
4 2 1 5.55111512312578e-017
0 0 0 30 0 0 30 0 1 0 0 1 0 0 0 30 1 30 1 0 3 2 1 3 1 4 
4 2 1 5.55111512312578e-017
260 237.5 0 290 237.5 0 290 237.5 1 260 237.5 1 0 0 0 30 1 30 1 0 3 2 1 3 1 4 
4 2 1 5.55111512312578e-017
30 0 0 30 0 1 30 30 1 30 30 0 0 0 1 0 1 -30 0 -30 2 4 3 2 1 4 
4 2 1 5.55111512312578e-017
290 237.5 0 290 237.5 1 290 267.5 1 290 267.5 0 0 0 1 0 1 -30 0 -30 2 1 4 2 4 3 
4 2 1 5.55111512312578e-017
0 30 0 30 30 0 30 30 1 0 30 1 0 0 0 30 1 30 1 0 3 2 1 3 1 4 
4 2 1 5.55111512312578e-017
260 267.5 0 290 267.5 0 290 267.5 1 260 267.5 1 0 0 0 30 1 30 1 0 3 2 1 3 1 4 
4 2 1 5.55111512312578e-017
0 0 0 0 0 1 0 30 1 0 30 0 0 0 1 0 1 -30 0 -30 2 4 3 2 1 4 
4 2 1 0
0 0 0 0 30 0 30 30 0 30 0 0 0 0 0 30 30 30 30 0 3 2 1 3 1 4 
4 2 1 5.55111512312578e-017
205 237.5 0 205 237.5 1 205 267.5 1 205 267.5 0 0 0 1 0 1 -30 0 -30 2 1 4 2 4 3 
4 2 1 5.55111512312578e-017
0 0 0 30 0 0 30 0 1 0 0 1 0 0 0 30 1 30 1 0 3 2 1 3 1 4 
4 2 1 5.55111512312578e-017
205 237.5 0 235 237.5 0 235 237.5 1 205 237.5 1 0 0 0 30 1 30 1 0 3 2 1 3 1 4 
4 2 1 5.55111512312578e-017
30 0 0 30 0 1 30 30 1 30 30 0 0 0 1 0 1 -30 0 -30 2 4 3 2 1 4 
4 2 1 5.55111512312578e-017
235 237.5 0 235 237.5 1 235 267.5 1 235 267.5 0 0 0 1 0 1 -30 0 -30 2 1 4 2 4 3 
4 2 1 5.55111512312578e-017
0 30 0 30 30 0 30 30 1 0 30 1 0 0 0 30 1 30 1 0 3 2 1 3 1 4 
4 2 1 5.55111512312578e-017
205 267.5 0 235 267.5 0 235 267.5 1 205 267.5 1 0 0 0 30 1 30 1 0 3 2 1 3 1 4 
4 2 1 5.55111512312578e-017
0 0 0 0 0 1 0 30 1 0 30 0 0 0 1 0 1 -30 0 -30 2 4 3 2 1 4 
4 2 1 0
0 0 0 0 30 0 30 30 0 30 0 0 0 0 0 30 30 30 30 0 3 2 1 3 1 4 
4 2 1 5.55111512312578e-017
205 280 0 205 280 1 205 310 1 205 310 0 0 0 1 0 1 -30 0 -30 2 1 4 2 4 3 
4 2 1 5.55111512312578e-017
0 0 0 30 0 0 30 0 1 0 0 1 0 0 0 30 1 30 1 0 3 2 1 3 1 4 
4 2 1 5.55111512312578e-017
205 280 0 235 280 0 235 280 1 205 280 1 0 0 0 30 1 30 1 0 3 2 1 3 1 4 
4 2 1 5.55111512312578e-017
30 0 0 30 0 1 30 30 1 30 30 0 0 0 1 0 1 -30 0 -30 2 4 3 2 1 4 
4 2 1 5.55111512312578e-017
235 280 0 235 280 1 235 310 1 235 310 0 0 0 1 0 1 -30 0 -30 2 1 4 2 4 3 
4 2 1 5.55111512312578e-017
0 30 0 30 30 0 30 30 1 0 30 1 0 0 0 30 1 30 1 0 3 2 1 3 1 4 
4 2 1 5.55111512312578e-017
205 310 0 235 310 0 235 310 1 205 310 1 0 0 0 30 1 30 1 0 3 2 1 3 1 4 
4 2 1 5.55111512312578e-017
0 0 0 0 0 1 0 30 1 0 30 0 0 0 1 0 1 -30 0 -30 2 4 3 2 1 4 
4 2 1 0
0 0 0 0 30 0 30 30 0 30 0 0 0 0 0 30 30 30 30 0 3 2 1 3 1 4 
4 2 1 5.55111512312578e-017
260 280 0 260 280 1 260 310 1 260 310 0 0 0 1 0 1 -30 0 -30 2 1 4 2 4 3 
4 2 1 5.55111512312578e-017
0 0 0 30 0 0 30 0 1 0 0 1 0 0 0 30 1 30 1 0 3 2 1 3 1 4 
4 2 1 5.55111512312578e-017
260 280 0 290 280 0 290 280 1 260 280 1 0 0 0 30 1 30 1 0 3 2 1 3 1 4 
4 2 1 5.55111512312578e-017
30 0 0 30 0 1 30 30 1 30 30 0 0 0 1 0 1 -30 0 -30 2 4 3 2 1 4 
4 2 1 5.55111512312578e-017
290 280 0 290 280 1 290 310 1 290 310 0 0 0 1 0 1 -30 0 -30 2 1 4 2 4 3 
4 2 1 5.55111512312578e-017
0 30 0 30 30 0 30 30 1 0 30 1 0 0 0 30 1 30 1 0 3 2 1 3 1 4 
4 2 1 5.55111512312578e-017
260 310 0 290 310 0 290 310 1 260 310 1 0 0 0 30 1 30 1 0 3 2 1 3 1 4 
4 2 1 5.55111512312578e-017
0 0 0 0 0 1 0 30 1 0 30 0 0 0 1 0 1 -30 0 -30 2 4 3 2 1 4 
4 2 1 0
0 0 0 0 30 0 30 30 0 30 0 0 0 0 0 30 30 30 30 0 3 2 1 3 1 4 
4 2 1 5.55111512312578e-017
205 195 0 205 195 1 205 225 1 205 225 0 0 0 1 0 1 -30 0 -30 2 1 4 2 4 3 
4 2 1 0
205 225 0 235 225 0 235 195 0 205 195 0 205 225 235 225 235 195 205 195 2 4 3 2 1 4 
4 2 1 5.55111512312578e-017
205 195 0 205 195 1 205 225 1 205 225 0 0 0 1 0 1 -30 0 -30 2 1 4 2 4 3 
4 2 1 5.55111512312578e-017
205 195 0 205 195 1 205 225 1 205 225 0 0 0 1 0 1 -30 0 -30 2 1 4 2 4 3 
4 2 1 5.55111512312578e-017
0 0 0 30 0 0 30 0 1 0 0 1 0 0 0 30 1 30 1 0 3 2 1 3 1 4 
4 2 1 5.55111512312578e-017
205 195 0 235 195 0 235 195 1 205 195 1 0 0 0 30 1 30 1 0 3 2 1 3 1 4 
4 2 1 5.55111512312578e-017
205 195 0 235 195 0 235 195 1 205 195 1 0 0 0 30 1 30 1 0 3 2 1 3 1 4 
4 2 1 5.55111512312578e-017
205 195 0 235 195 0 235 195 1 205 195 1 0 0 0 30 1 30 1 0 3 2 1 3 1 4 
4 2 1 5.55111512312578e-017
30 0 0 30 0 1 30 30 1 30 30 0 0 0 1 0 1 -30 0 -30 2 4 3 2 1 4 
4 2 1 5.55111512312578e-017
235 195 0 235 195 1 235 225 1 235 225 0 0 0 1 0 1 -30 0 -30 2 1 4 2 4 3 
4 2 1 5.55111512312578e-017
235 195 0 235 195 1 235 225 1 235 225 0 0 0 1 0 1 -30 0 -30 2 1 4 2 4 3 
4 2 1 5.55111512312578e-017
235 195 0 235 195 1 235 225 1 235 225 0 0 0 1 0 1 -30 0 -30 2 1 4 2 4 3 
4 2 1 5.55111512312578e-017
0 30 0 30 30 0 30 30 1 0 30 1 0 0 0 30 1 30 1 0 3 2 1 3 1 4 
4 2 1 5.55111512312578e-017
205 225 0 235 225 0 235 225 1 205 225 1 0 0 0 30 1 30 1 0 3 2 1 3 1 4 
4 2 1 5.55111512312578e-017
205 225 0 235 225 0 235 225 1 205 225 1 0 0 0 30 1 30 1 0 3 2 1 3 1 4 
4 2 1 5.55111512312578e-017
205 225 0 235 225 0 235 225 1 205 225 1 0 0 0 30 1 30 1 0 3 2 1 3 1 4 
4 2 1 5.55111512312578e-017
0 0 0 0 0 1 0 30 1 0 30 0 0 0 1 0 1 -30 0 -30 2 4 3 2 1 4 
4 2 1 0
0 0 0 0 30 0 30 30 0 30 0 0 0 0 0 30 30 30 30 0 3 2 1 3 1 4 
4 2 1 5.55111512312578e-017
260 195 0 260 195 1 260 225 1 260 225 0 0 0 1 0 1 -30 0 -30 2 1 4 2 4 3 
4 2 1 5.55111512312578e-017
0 0 0 30 0 0 30 0 1 0 0 1 0 0 0 30 1 30 1 0 3 2 1 3 1 4 
4 2 1 5.55111512312578e-017
260 195 0 290 195 0 290 195 1 260 195 1 0 0 0 30 1 30 1 0 3 2 1 3 1 4 
4 2 1 5.55111512312578e-017
30 0 0 30 0 1 30 30 1 30 30 0 0 0 1 0 1 -30 0 -30 2 4 3 2 1 4 
4 2 1 5.55111512312578e-017
290 195 0 290 195 1 290 225 1 290 225 0 0 0 1 0 1 -30 0 -30 2 1 4 2 4 3 
4 2 1 5.55111512312578e-017
0 30 0 30 30 0 30 30 1 0 30 1 0 0 0 30 1 30 1 0 3 2 1 3 1 4 
4 2 1 5.55111512312578e-017
260 225 0 290 225 0 290 225 1 260 225 1 0 0 0 30 1 30 1 0 3 2 1 3 1 4 
4 2 1 0
0 0 1 0 30 1 30 30 1 30 0 1 0 0 0 30 30 30 30 0 3 2 1 3 1 4 
4 2 1 0
0 0 1 0 30 1 30 30 1 30 0 1 0 0 0 30 30 30 30 0 3 2 1 3 1 4 
4 2 1 0
0 0 1 0 30 1 30 30 1 30 0 1 0 0 0 30 30 30 30 0 3 2 1 3 1 4 
4 2 1 0
0 0 1 0 30 1 30 30 1 30 0 1 0 0 0 30 30 30 30 0 3 2 1 3 1 4 
4 2 1 0
0 0 1 0 30 1 30 30 1 30 0 1 0 0 0 30 30 30 30 0 3 2 1 3 1 4 
4 2 1 0
0 0 1 0 30 1 30 30 1 30 0 1 0 0 0 30 30 30 30 0 3 2 1 3 1 4 

TShapes 222
Ve
1e-007
0 0 500
0 0

0101101
*
Ve
1e-007
0 0 0
0 0

0101101
*
Ed
 1e-007 1 1 0
1  1 0 0 500
2  1 1 0 0 500
2  2 2 0 0 500
6  1 1 0
6  2 2 0
0

0101000
-222 0 +221 0 *
Ve
1e-007
0 500 500
0 0

0101101
*
Ed
 1e-007 1 1 0
1  2 0 0 500
2  3 1 0 0 500
2  4 3 0 0 500
6  3 1 0
6  4 3 0
0

0101000
-219 0 +222 0 *
Ve
1e-007
0 500 0
0 0

0101101
*
Ed
 1e-007 1 1 0
1  3 0 0 500
2  5 1 0 0 500
2  6 4 0 0 500
6  5 1 0
6  6 4 0
0

0101000
-219 0 +217 0 *
Ed
 1e-007 1 1 0
1  4 0 0 500
2  7 1 0 0 500
2  8 5 0 0 500
6  7 1 0
6  8 5 0
6  9 6 3
6  10 7 3
0

0101000
-217 0 +221 0 *
Wi

0101100
-220 0 -218 0 +216 0 +215 0 *
Fa
0  1e-007 1 0
2  1
0111000
+214 0 *
Ve
1e-007
500 0 0
0 0

0101101
*
Ed
 1e-007 1 1 0
1  5 0 0 500
2  9 2 0 0 500
2  10 5 0 0 500
6  11 2 0
6  12 5 0
6  13 6 3
6  14 7 3
0

0101000
-212 0 +221 0 *
Ve
1e-007
500 0 500
0 0

0101101
*
Ed
 1e-007 1 1 0
1  6 0 0 500
2  11 6 0 0 500
2  12 2 0 0 500
6  15 8 0
6  16 2 0
0

0101000
-210 0 +212 0 *
Ed
 1e-007 1 1 0
1  7 0 0 500
2  13 2 0 0 500
2  14 3 0 0 500
6  17 2 0
6  18 3 0
0

0101000
-210 0 +222 0 *
Wi

0101100
-211 0 -209 0 +208 0 +220 0 *
Fa
0  1e-007 2 0
2  2
0101000
+207 0 *
Ve
1e-007
500 500 500
0 0

0101101
*
Ed
 1e-007 1 1 0
1  8 0 0 500
2  15 4 0 0 500
2  16 3 0 0 500
6  19 4 0
6  20 3 0
0

0101000
-205 0 +219 0 *
Ed
 1e-007 1 1 0
1  9 0 0 500
2  17 6 0 0 500
2  18 3 0 0 500
6  21 8 0
6  22 3 0
0

0101000
-205 0 +210 0 *
Wi

0101100
-218 0 -204 0 +203 0 +208 0 *
Fa
0  1e-007 3 0
2  3
0101000
+202 0 *
Ve
1e-007
500 500 0
0 0

0101101
*
Ed
 1e-007 1 1 0
1  10 0 0 500
2  19 4 0 0 500
2  20 5 0 0 500
6  23 4 0
6  24 5 0
6  25 6 3
6  26 7 3
0

0101000
-200 0 +217 0 *
Ed
 1e-007 1 1 0
1  11 0 0 500
2  21 6 0 0 500
2  22 4 0 0 500
6  27 8 0
6  28 4 0
0

0101000
-205 0 +200 0 *
Wi

0101100
-199 0 -198 0 +204 0 +216 0 *
Fa
0  1e-007 4 0
2  4
0101000
+197 0 *
Ed
 1e-007 1 1 0
1  12 0 0 500
2  23 6 0 0 500
2  24 5 0 0 500
6  29 8 0
6  30 5 0
6  31 6 3
6  32 7 3
0

0101000
-200 0 +212 0 *
Wi

0101100
-215 2 -199 2 +211 2 +195 2 *
Ve
2.12133034355964e-007
0 30 0
0 0

0101101
*
Ve
2.12133034355964e-007
0 0 0
0 0

0101101
*
Ed
 1e-007 1 1 0
1  13 0 0 30
2  25 7 0 0 30
2  26 8 0 0 30
6  33 9 0
6  34 10 0
2  27 5 8 0 30
2  28 5 9 0 30
6  35 7 10
6  36 11 10
0

0101000
-193 0 +192 0 *
Ve
2.12133034355964e-007
30 0 0
0 0

0101101
*
Ed
 1e-007 1 1 0
1  14 0 0 30
2  29 9 0 0 30
2  30 8 0 0 30
6  37 12 0
6  38 10 0
2  31 5 8 0 30
2  32 5 9 0 30
6  39 7 10
6  40 13 10
0

0101000
-190 0 +192 0 *
Ve
2.12133034355964e-007
30 30 0
0 0

0101101
*
Ed
 1e-007 1 1 0
1  15 0 0 30
2  33 10 0 0 30
2  34 8 0 0 30
6  41 14 0
6  42 10 0
2  35 5 8 0 30
2  36 5 9 0 30
6  43 7 10
6  44 15 10
0

0101000
-188 0 +190 0 *
Ed
 1e-007 1 1 0
1  16 0 0 30
2  37 11 0 0 30
2  38 8 0 0 30
6  45 16 0
6  46 10 0
2  39 5 8 0 30
2  40 5 9 0 30
6  47 7 10
6  48 17 10
0

0101000
-188 0 +193 0 *
Wi

0101100
+191 6 -189 6 -187 6 +186 6 *
Ve
2.12133034355964e-007
0 30 0
0 0

0101101
*
Ve
2.12133034355964e-007
0 0 0
0 0

0101101
*
Ed
 1e-007 1 1 0
1  17 0 0 30
2  41 12 0 0 30
2  42 13 0 0 30
6  49 18 0
6  50 19 0
2  43 5 13 0 30
2  44 5 14 0 30
6  51 7 15
6  52 20 15
0

0101000
-184 0 +183 0 *
Ve
2.12133034355964e-007
30 0 0
0 0

0101101
*
Ed
 1e-007 1 1 0
1  18 0 0 30
2  45 14 0 0 30
2  46 13 0 0 30
6  53 21 0
6  54 19 0
2  47 5 13 0 30
2  48 5 14 0 30
6  55 7 15
6  56 22 15
0

0101000
-181 0 +183 0 *
Ve
2.12133034355964e-007
30 30 0
0 0

0101101
*
Ed
 1e-007 1 1 0
1  19 0 0 30
2  49 15 0 0 30
2  50 13 0 0 30
6  57 23 0
6  58 19 0
2  51 5 13 0 30
2  52 5 14 0 30
6  59 7 15
6  60 24 15
0

0101000
-179 0 +181 0 *
Ed
 1e-007 1 1 0
1  20 0 0 30
2  53 16 0 0 30
2  54 13 0 0 30
6  61 25 0
6  62 19 0
2  55 5 13 0 30
2  56 5 14 0 30
6  63 7 15
6  64 26 15
0

0101000
-179 0 +184 0 *
Wi

0101100
+182 12 -180 12 -178 12 +177 12 *
Ve
2.12133034355964e-007
0 30 0
0 0

0101101
*
Ve
2.12133034355964e-007
0 0 0
0 0

0101101
*
Ed
 1e-007 1 1 0
1  21 0 0 30
2  57 17 0 0 30
2  58 18 0 0 30
6  65 27 0
6  66 28 0
2  59 5 18 0 30
2  60 5 19 0 30
6  67 7 20
6  68 29 20
0

0101000
-175 0 +174 0 *
Ve
2.12133034355964e-007
30 0 0
0 0

0101101
*
Ed
 1e-007 1 1 0
1  22 0 0 30
2  61 19 0 0 30
2  62 18 0 0 30
6  69 30 0
6  70 28 0
2  63 5 18 0 30
2  64 5 19 0 30
6  71 7 20
6  72 31 20
0

0101000
-172 0 +174 0 *
Ve
2.12133034355964e-007
30 30 0
0 0

0101101
*
Ed
 1e-007 1 1 0
1  23 0 0 30
2  65 20 0 0 30
2  66 18 0 0 30
6  73 32 0
6  74 28 0
2  67 5 18 0 30
2  68 5 19 0 30
6  75 7 20
6  76 33 20
0

0101000
-170 0 +172 0 *
Ed
 1e-007 1 1 0
1  24 0 0 30
2  69 21 0 0 30
2  70 18 0 0 30
6  77 34 0
6  78 28 0
2  71 5 18 0 30
2  72 5 19 0 30
6  79 7 20
6  80 35 20
0

0101000
-170 0 +175 0 *
Wi

0101100
+173 17 -171 17 -169 17 +168 17 *
Ve
2.12133034355964e-007
0 30 0
0 0

0101101
*
Ve
2.12133034355964e-007
0 0 0
0 0

0101101
*
Ed
 1e-007 1 1 0
1  25 0 0 30
2  73 22 0 0 30
2  74 23 0 0 30
6  81 36 0
6  82 37 0
2  75 5 23 0 30
2  76 5 24 0 30
6  83 7 25
6  84 38 25
0

0101000
-166 0 +165 0 *
Ve
2.12133034355964e-007
30 0 0
0 0

0101101
*
Ed
 1e-007 1 1 0
1  26 0 0 30
2  77 24 0 0 30
2  78 23 0 0 30
6  85 39 0
6  86 37 0
2  79 5 23 0 30
2  80 5 24 0 30
6  87 7 25
6  88 40 25
0

0101000
-163 0 +165 0 *
Ve
2.12133034355964e-007
30 30 0
0 0

0101101
*
Ed
 1e-007 1 1 0
1  27 0 0 30
2  81 25 0 0 30
2  82 23 0 0 30
6  89 41 0
6  90 37 0
2  83 5 23 0 30
2  84 5 24 0 30
6  91 7 25
6  92 42 25
0

0101000
-161 0 +163 0 *
Ed
 1e-007 1 1 0
1  28 0 0 30
2  85 26 0 0 30
2  86 23 0 0 30
6  93 43 0
6  94 37 0
2  87 5 23 0 30
2  88 5 24 0 30
6  95 7 25
6  96 44 25
0

0101000
-161 0 +166 0 *
Wi

0101100
+164 22 -162 22 -160 22 +159 22 *
Ve
2.12133034355964e-007
0 30 0
0 0

0101101
*
Ve
2.12133034355964e-007
0 0 0
0 0

0101101
*
Ed
 1e-007 1 1 0
1  29 0 0 30
2  89 27 0 0 30
2  90 28 0 0 30
6  97 45 0
6  98 46 0
2  91 5 28 0 30
6  99 47 29
6  100 48 29
6  101 6 29
6  102 49 29
2  92 5 30 0 30
2  93 5 31 0 30
6  103 7 32
6  104 50 32
0

0101000
-157 0 +156 0 *
Ve
2.12133034355964e-007
30 0 0
0 0

0101101
*
Ed
 1e-007 1 1 0
1  30 0 0 30
2  94 29 0 0 30
2  95 28 0 0 30
6  105 51 0
6  106 46 0
2  96 5 28 0 30
6  107 52 29
6  108 48 29
6  109 6 29
6  110 53 29
2  97 5 30 0 30
2  98 5 31 0 30
6  111 7 32
6  112 54 32
0

0101000
-154 0 +156 0 *
Ve
2.12133034355964e-007
30 30 0
0 0

0101101
*
Ed
 1e-007 1 1 0
1  31 0 0 30
2  99 30 0 0 30
2  100 28 0 0 30
6  113 55 0
6  114 46 0
2  101 5 28 0 30
6  115 48 29
6  116 56 29
6  117 6 29
6  118 57 29
2  102 5 30 0 30
2  103 5 31 0 30
6  119 7 32
6  120 58 32
0

0101000
-152 0 +154 0 *
Ed
 1e-007 1 1 0
1  32 0 0 30
2  104 31 0 0 30
2  105 28 0 0 30
6  121 59 0
6  122 46 0
2  106 5 28 0 30
6  123 48 29
6  124 60 29
6  125 6 29
6  126 61 29
2  107 5 30 0 30
2  108 5 31 0 30
6  127 7 32
6  128 62 32
0

0101000
-152 0 +157 0 *
Wi

0101100
+155 27 -153 27 -151 27 +150 27 *
Ve
2.12133034355964e-007
0 30 0
0 0

0101101
*
Ve
2.12133034355964e-007
0 0 0
0 0

0101101
*
Ed
 1e-007 1 1 0
1  33 0 0 30
2  109 32 0 0 30
2  110 33 0 0 30
6  129 63 0
6  130 64 0
2  111 5 35 0 30
2  112 5 36 0 30
6  131 7 37
6  132 65 37
0

0101000
-148 0 +147 0 *
Ve
2.12133034355964e-007
30 0 0
0 0

0101101
*
Ed
 1e-007 1 1 0
1  34 0 0 30
2  113 34 0 0 30
2  114 33 0 0 30
6  133 66 0
6  134 64 0
2  115 5 35 0 30
2  116 5 36 0 30
6  135 7 37
6  136 67 37
0

0101000
-145 0 +147 0 *
Ve
2.12133034355964e-007
30 30 0
0 0

0101101
*
Ed
 1e-007 1 1 0
1  35 0 0 30
2  117 35 0 0 30
2  118 33 0 0 30
6  137 68 0
6  138 64 0
2  119 5 35 0 30
2  120 5 36 0 30
6  139 7 37
6  140 69 37
0

0101000
-143 0 +145 0 *
Ed
 1e-007 1 1 0
1  36 0 0 30
2  121 36 0 0 30
2  122 33 0 0 30
6  141 70 0
6  142 64 0
2  123 5 35 0 30
2  124 5 36 0 30
6  143 7 37
6  144 71 37
0

0101000
-143 0 +148 0 *
Wi

0101100
+146 34 -144 34 -142 34 +141 34 *
Fa
0  1e-007 5 2
2  7
0101000
+194 0 +185 0 +176 0 +167 0 +158 0 +149 0 +140 0 *
Wi

0101100
-209 0 -203 0 +198 0 +195 0 *
Fa
0  1e-007 6 0
2  8
0111000
+138 0 *
Ve
1e-007
0 0 1
0 0

0101101
*
Ed
 1e-007 1 1 0
1  37 0 0 1
2  125 7 0 0 1
2  126 9 0 0 1
6  145 9 0
6  146 12 0
6  147 11 10
6  148 13 10
0

0101000
-136 0 +192 0 *
Ve
1e-007
0 30 1
0 0

0101101
*
Ed
 1e-007 1 1 0
1  38 0 0 30
2  127 7 0 0 30
2  128 37 0 0 30
6  149 9 0
6  150 72 0
6  151 11 10
0

0101000
-134 0 +136 0 *
Ed
 1e-007 1 1 0
1  39 0 0 1
2  129 7 0 0 1
2  130 11 0 0 1
6  152 9 0
6  153 16 0
6  154 11 10
6  155 17 10
0

0101000
-134 0 +193 0 *
Wi

0101100
-135 6 -133 6 +191 6 +132 6 *
Fa
0  1e-007 7 6
2  11
0101000
+131 0 *
Ve
1e-007
30 0 1
0 0

0101101
*
Ed
 1e-007 1 1 0
1  40 0 0 1
2  131 10 0 0 1
2  132 9 0 0 1
6  156 14 0
6  157 12 0
6  158 13 10
6  159 15 10
0

0101000
-129 0 +190 0 *
Ed
 1e-007 1 1 0
1  41 0 0 30
2  133 9 0 0 30
2  134 37 0 0 30
6  160 12 0
6  161 72 0
6  162 13 10
0

0101000
-129 0 +136 0 *
Wi

0101100
-189 6 -128 6 +135 6 +127 6 *
Fa
0  1e-007 9 6
2  13
0101000
+126 0 *
Ve
1e-007
30 30 1
0 0

0101101
*
Ed
 1e-007 1 1 0
1  42 0 0 30
2  135 10 0 0 30
2  136 37 0 0 30
6  163 14 0
6  164 72 0
6  165 15 10
0

0101000
-124 0 +129 0 *
Ed
 1e-007 1 1 0
1  43 0 0 1
2  137 10 0 0 1
2  138 11 0 0 1
6  166 14 0
6  167 16 0
6  168 15 10
6  169 17 10
0

0101000
-124 0 +188 0 *
Wi

0101100
-128 6 -123 6 +187 6 +122 6 *
Fa
0  1e-007 10 6
2  15
0101000
+121 0 *
Ed
 1e-007 1 1 0
1  44 0 0 30
2  139 11 0 0 30
2  140 37 0 0 30
6  170 16 0
6  171 72 0
6  172 17 10
0

0101000
-124 0 +134 0 *
Wi

0101100
-186 6 -122 6 +132 6 +119 6 *
Fa
0  1e-007 11 6
2  17
0101000
+118 0 *
Ve
1e-007
0 0 1
0 0

0101101
*
Ed
 1e-007 1 1 0
1  45 0 0 1
2  141 12 0 0 1
2  142 14 0 0 1
6  173 18 0
6  174 21 0
6  175 20 15
6  176 22 15
0

0101000
-116 0 +183 0 *
Ve
1e-007
0 30 1
0 0

0101101
*
Ed
 1e-007 1 1 0
1  46 0 0 30
2  143 12 0 0 30
2  144 38 0 0 30
6  177 18 0
6  178 73 0
6  179 20 15
0

0101000
-114 0 +116 0 *
Ed
 1e-007 1 1 0
1  47 0 0 1
2  145 12 0 0 1
2  146 16 0 0 1
6  180 18 0
6  181 25 0
6  182 20 15
6  183 26 15
0

0101000
-114 0 +184 0 *
Wi

0101100
-115 12 -113 12 +182 12 +112 12 *
Fa
0  1e-007 12 12
2  20
0101000
+111 0 *
Ve
1e-007
30 0 1
0 0

0101101
*
Ed
 1e-007 1 1 0
1  48 0 0 1
2  147 15 0 0 1
2  148 14 0 0 1
6  184 23 0
6  185 21 0
6  186 22 15
6  187 24 15
0

0101000
-109 0 +181 0 *
Ed
 1e-007 1 1 0
1  49 0 0 30
2  149 14 0 0 30
2  150 38 0 0 30
6  188 21 0
6  189 73 0
6  190 22 15
0

0101000
-109 0 +116 0 *
Wi

0101100
-180 12 -108 12 +115 12 +107 12 *
Fa
0  1e-007 14 12
2  22
0101000
+106 0 *
Ve
1e-007
30 30 1
0 0

0101101
*
Ed
 1e-007 1 1 0
1  50 0 0 30
2  151 15 0 0 30
2  152 38 0 0 30
6  191 23 0
6  192 73 0
6  193 24 15
0

0101000
-104 0 +109 0 *
Ed
 1e-007 1 1 0
1  51 0 0 1
2  153 15 0 0 1
2  154 16 0 0 1
6  194 23 0
6  195 25 0
6  196 24 15
6  197 26 15
0

0101000
-104 0 +179 0 *
Wi

0101100
-108 12 -103 12 +178 12 +102 12 *
Fa
0  1e-007 15 12
2  24
0101000
+101 0 *
Ed
 1e-007 1 1 0
1  52 0 0 30
2  155 16 0 0 30
2  156 38 0 0 30
6  198 25 0
6  199 73 0
6  200 26 15
0

0101000
-104 0 +114 0 *
Wi

0101100
-177 12 -102 12 +112 12 +99 12 *
Fa
0  1e-007 16 12
2  26
0101000
+98 0 *
Ve
1e-007
0 0 1
0 0

0101101
*
Ed
 1e-007 1 1 0
1  53 0 0 1
2  157 17 0 0 1
2  158 19 0 0 1
6  201 27 0
6  202 30 0
6  203 29 20
6  204 31 20
0

0101000
-96 0 +174 0 *
Ve
1e-007
0 30 1
0 0

0101101
*
Ed
 1e-007 1 1 0
1  54 0 0 30
2  159 17 0 0 30
2  160 39 0 0 30
6  205 27 0
6  206 74 0
6  207 29 20
0

0101000
-94 0 +96 0 *
Ed
 1e-007 1 1 0
1  55 0 0 1
2  161 17 0 0 1
2  162 21 0 0 1
6  208 27 0
6  209 34 0
6  210 29 20
6  211 35 20
0

0101000
-94 0 +175 0 *
Wi

0101100
-95 17 -93 17 +173 17 +92 17 *
Fa
0  1e-007 17 17
2  29
0101000
+91 0 *
Ve
1e-007
30 0 1
0 0

0101101
*
Ed
 1e-007 1 1 0
1  56 0 0 1
2  163 20 0 0 1
2  164 19 0 0 1
6  212 32 0
6  213 30 0
6  214 31 20
6  215 33 20
0

0101000
-89 0 +172 0 *
Ed
 1e-007 1 1 0
1  57 0 0 30
2  165 19 0 0 30
2  166 39 0 0 30
6  216 30 0
6  217 74 0
6  218 31 20
0

0101000
-89 0 +96 0 *
Wi

0101100
-171 17 -88 17 +95 17 +87 17 *
Fa
0  1e-007 19 17
2  31
0101000
+86 0 *
Ve
1e-007
30 30 1
0 0

0101101
*
Ed
 1e-007 1 1 0
1  58 0 0 30
2  167 20 0 0 30
2  168 39 0 0 30
6  219 32 0
6  220 74 0
6  221 33 20
0

0101000
-84 0 +89 0 *
Ed
 1e-007 1 1 0
1  59 0 0 1
2  169 20 0 0 1
2  170 21 0 0 1
6  222 32 0
6  223 34 0
6  224 33 20
6  225 35 20
0

0101000
-84 0 +170 0 *
Wi

0101100
-88 17 -83 17 +169 17 +82 17 *
Fa
0  1e-007 20 17
2  33
0101000
+81 0 *
Ed
 1e-007 1 1 0
1  60 0 0 30
2  171 21 0 0 30
2  172 39 0 0 30
6  226 34 0
6  227 74 0
6  228 35 20
0

0101000
-84 0 +94 0 *
Wi

0101100
-168 17 -82 17 +92 17 +79 17 *
Fa
0  1e-007 21 17
2  35
0101000
+78 0 *
Ve
1e-007
0 0 1
0 0

0101101
*
Ed
 1e-007 1 1 0
1  61 0 0 1
2  173 22 0 0 1
2  174 24 0 0 1
6  229 36 0
6  230 39 0
6  231 38 25
6  232 40 25
0

0101000
-76 0 +165 0 *
Ve
1e-007
0 30 1
0 0

0101101
*
Ed
 1e-007 1 1 0
1  62 0 0 30
2  175 22 0 0 30
2  176 40 0 0 30
6  233 36 0
6  234 75 0
6  235 38 25
0

0101000
-74 0 +76 0 *
Ed
 1e-007 1 1 0
1  63 0 0 1
2  177 22 0 0 1
2  178 26 0 0 1
6  236 36 0
6  237 43 0
6  238 38 25
6  239 44 25
0

0101000
-74 0 +166 0 *
Wi

0101100
-75 22 -73 22 +164 22 +72 22 *
Fa
0  1e-007 22 22
2  38
0101000
+71 0 *
Ve
1e-007
30 0 1
0 0

0101101
*
Ed
 1e-007 1 1 0
1  64 0 0 1
2  179 25 0 0 1
2  180 24 0 0 1
6  240 41 0
6  241 39 0
6  242 40 25
6  243 42 25
0

0101000
-69 0 +163 0 *
Ed
 1e-007 1 1 0
1  65 0 0 30
2  181 24 0 0 30
2  182 40 0 0 30
6  244 39 0
6  245 75 0
6  246 40 25
0

0101000
-69 0 +76 0 *
Wi

0101100
-162 22 -68 22 +75 22 +67 22 *
Fa
0  1e-007 24 22
2  40
0101000
+66 0 *
Ve
1e-007
30 30 1
0 0

0101101
*
Ed
 1e-007 1 1 0
1  66 0 0 30
2  183 25 0 0 30
2  184 40 0 0 30
6  247 41 0
6  248 75 0
6  249 42 25
0

0101000
-64 0 +69 0 *
Ed
 1e-007 1 1 0
1  67 0 0 1
2  185 25 0 0 1
2  186 26 0 0 1
6  250 41 0
6  251 43 0
6  252 42 25
6  253 44 25
0

0101000
-64 0 +161 0 *
Wi

0101100
-68 22 -63 22 +160 22 +62 22 *
Fa
0  1e-007 25 22
2  42
0101000
+61 0 *
Ed
 1e-007 1 1 0
1  68 0 0 30
2  187 26 0 0 30
2  188 40 0 0 30
6  254 43 0
6  255 75 0
6  256 44 25
0

0101000
-64 0 +74 0 *
Wi

0101100
-159 22 -62 22 +72 22 +59 22 *
Fa
0  1e-007 26 22
2  44
0101000
+58 0 *
Ve
1e-007
0 0 1
0 0

0101101
*
Ed
 1e-007 1 1 0
1  69 0 0 1
2  189 27 0 0 1
2  190 29 0 0 1
6  257 45 0
6  258 51 0
6  259 47 29
6  260 52 29
6  261 49 29
6  262 53 29
6  263 50 32
6  264 54 32
0

0101000
-56 0 +156 0 *
Ve
1e-007
0 30 1
0 0

0101101
*
Ed
 1e-007 1 1 0
1  70 0 0 30
2  191 27 0 0 30
2  192 41 0 0 30
6  265 45 0
6  266 76 0
6  267 47 29
6  268 49 29
6  269 50 32
0

0101000
-54 0 +56 0 *
Ed
 1e-007 1 1 0
1  71 0 0 1
2  193 27 0 0 1
2  194 31 0 0 1
6  270 45 0
6  271 59 0
6  272 47 29
6  273 60 29
6  274 49 29
6  275 61 29
6  276 50 32
6  277 62 32
0

0101000
-54 0 +157 0 *
Wi

0101100
-55 27 -53 27 +155 27 +52 27 *
Fa
0  1e-007 27 27
2  50
0101000
+51 0 *
Ve
1e-007
30 0 1
0 0

0101101
*
Ed
 1e-007 1 1 0
1  72 0 0 1
2  195 30 0 0 1
2  196 29 0 0 1
6  278 55 0
6  279 51 0
6  280 52 29
6  281 56 29
6  282 53 29
6  283 57 29
6  284 54 32
6  285 58 32
0

0101000
-49 0 +154 0 *
Ed
 1e-007 1 1 0
1  73 0 0 30
2  197 29 0 0 30
2  198 41 0 0 30
6  286 51 0
6  287 76 0
6  288 52 29
6  289 53 29
6  290 54 32
0

0101000
-49 0 +56 0 *
Wi

0101100
-153 27 -48 27 +55 27 +47 27 *
Fa
0  1e-007 29 27
2  54
0101000
+46 0 *
Ve
1e-007
30 30 1
0 0

0101101
*
Ed
 1e-007 1 1 0
1  74 0 0 30
2  199 30 0 0 30
2  200 41 0 0 30
6  291 55 0
6  292 76 0
6  293 56 29
6  294 57 29
6  295 58 32
0

0101000
-44 0 +49 0 *
Ed
 1e-007 1 1 0
1  75 0 0 1
2  201 30 0 0 1
2  202 31 0 0 1
6  296 55 0
6  297 59 0
6  298 60 29
6  299 56 29
6  300 57 29
6  301 61 29
6  302 58 32
6  303 62 32
0

0101000
-44 0 +152 0 *
Wi

0101100
-48 27 -43 27 +151 27 +42 27 *
Fa
0  1e-007 30 27
2  58
0101000
+41 0 *
Ed
 1e-007 1 1 0
1  76 0 0 30
2  203 31 0 0 30
2  204 41 0 0 30
6  304 59 0
6  305 76 0
6  306 60 29
6  307 61 29
6  308 62 32
0

0101000
-44 0 +54 0 *
Wi

0101100
-150 27 -42 27 +52 27 +39 27 *
Fa
0  1e-007 31 27
2  62
0101000
+38 0 *
Ve
1e-007
0 0 1
0 0

0101101
*
Ed
 1e-007 1 1 0
1  77 0 0 1
2  205 32 0 0 1
2  206 34 0 0 1
6  309 63 0
6  310 66 0
6  311 65 37
6  312 67 37
0

0101000
-36 0 +147 0 *
Ve
1e-007
0 30 1
0 0

0101101
*
Ed
 1e-007 1 1 0
1  78 0 0 30
2  207 32 0 0 30
2  208 42 0 0 30
6  313 63 0
6  314 77 0
6  315 65 37
0

0101000
-34 0 +36 0 *
Ed
 1e-007 1 1 0
1  79 0 0 1
2  209 32 0 0 1
2  210 36 0 0 1
6  316 63 0
6  317 70 0
6  318 65 37
6  319 71 37
0

0101000
-34 0 +148 0 *
Wi

0101100
-35 34 -33 34 +146 34 +32 34 *
Fa
0  1e-007 32 34
2  65
0101000
+31 0 *
Ve
1e-007
30 0 1
0 0

0101101
*
Ed
 1e-007 1 1 0
1  80 0 0 1
2  211 35 0 0 1
2  212 34 0 0 1
6  320 68 0
6  321 66 0
6  322 67 37
6  323 69 37
0

0101000
-29 0 +145 0 *
Ed
 1e-007 1 1 0
1  81 0 0 30
2  213 34 0 0 30
2  214 42 0 0 30
6  324 66 0
6  325 77 0
6  326 67 37
0

0101000
-29 0 +36 0 *
Wi

0101100
-144 34 -28 34 +35 34 +27 34 *
Fa
0  1e-007 34 34
2  67
0101000
+26 0 *
Ve
1e-007
30 30 1
0 0

0101101
*
Ed
 1e-007 1 1 0
1  82 0 0 30
2  215 35 0 0 30
2  216 42 0 0 30
6  327 68 0
6  328 77 0
6  329 69 37
0

0101000
-24 0 +29 0 *
Ed
 1e-007 1 1 0
1  83 0 0 1
2  217 35 0 0 1
2  218 36 0 0 1
6  330 68 0
6  331 70 0
6  332 69 37
6  333 71 37
0

0101000
-24 0 +143 0 *
Wi

0101100
-28 34 -23 34 +142 34 +22 34 *
Fa
0  1e-007 35 34
2  69
0101000
+21 0 *
Ed
 1e-007 1 1 0
1  84 0 0 30
2  219 36 0 0 30
2  220 42 0 0 30
6  334 70 0
6  335 77 0
6  336 71 37
0

0101000
-24 0 +34 0 *
Wi

0101100
-141 34 -22 34 +32 34 +19 34 *
Fa
0  1e-007 36 34
2  71
0101000
+18 0 *
Wi

0101100
-133 0 -119 0 +123 0 +127 0 *
Fa
0  1e-007 37 0
2  72
0111000
+16 0 *
Wi

0101100
-113 0 -99 0 +103 0 +107 0 *
Fa
0  1e-007 38 0
2  73
0111000
+14 0 *
Wi

0101100
-93 0 -79 0 +83 0 +87 0 *
Fa
0  1e-007 39 0
2  74
0111000
+12 0 *
Wi

0101100
-73 0 -59 0 +63 0 +67 0 *
Fa
0  1e-007 40 0
2  75
0111000
+10 0 *
Wi

0101100
-53 0 -39 0 +43 0 +47 0 *
Fa
0  1e-007 41 0
2  76
0111000
+8 0 *
Wi

0101100
-33 0 -19 0 +23 0 +27 0 *
Fa
0  1e-007 42 0
2  77
0111000
+6 0 *
Sh

0101100
-213 2 -206 2 +201 2 +196 2 -139 0 +137 2 +130 0 +125 0 -120 0 -117 0 
+110 0 +105 0 -100 0 -97 0 +90 0 +85 0 -80 0 -77 0 +70 0 +65 0 
-60 0 -57 0 +50 0 +45 0 -40 0 -37 0 +30 0 +25 0 -20 0 -17 0 
-15 6 -13 12 -11 17 -9 22 -7 27 -5 34 *
So

0100000
+4 0 *
Co

0100000
+3 0 *
Co

1100000
+2 1 *

+1 0 